<?xml version="1.0" encoding="UTF-8" standalone="no"?>
<!-- Generator: Adobe Illustrator 19.2.0, SVG Export Plug-In . SVG Version: 6.00 Build 0)  -->

<svg
   version="1.1"
   x="0px"
   y="0px"
   viewBox="0 0 3456 1728"
   style="enable-background:new 0 0 3456 1728;"
   xml:space="preserve"
   id="svg2132"
   sodipodi:docname="makerspace.svg"
   inkscape:version="1.1.2 (0a00cf5339, 2022-02-04)"
   xmlns:inkscape="http://www.inkscape.org/namespaces/inkscape"
   xmlns:sodipodi="http://sodipodi.sourceforge.net/DTD/sodipodi-0.dtd"
   xmlns="http://www.w3.org/2000/svg"
   xmlns:svg="http://www.w3.org/2000/svg"><defs
   id="defs2136" /><sodipodi:namedview
   id="namedview2134"
   pagecolor="#ffffff"
   bordercolor="#666666"
   borderopacity="1.0"
   inkscape:pageshadow="2"
   inkscape:pageopacity="0.0"
   inkscape:pagecheckerboard="0"
   showgrid="false"
   inkscape:zoom="0.76736111"
   inkscape:cx="1532.5249"
   inkscape:cy="780.59729"
   inkscape:window-width="3840"
   inkscape:window-height="2123"
   inkscape:window-x="0"
   inkscape:window-y="0"
   inkscape:window-maximized="1"
   inkscape:current-layer="svg2132" />
<style
   type="text/css"
   id="style1904">
	.st0{fill:#FFFFFF;}
</style>
<g
   id="Logo">
	<path
   d="M749.3,934.5c2.5,13.6,4.9,27.2,7.4,40.8c7,37.1,14.1,74.2,21.2,111.3c0.6,3.2,1.3,6.3,2,9.6c1.8,0.2,3.3,0.4,5,0.6   c-0.1,0.7,0,1.3-0.2,1.6c-6.7,9.8-13.4,19.6-20.4,29.3c-1,1.4-3.2,2.1-5,2.5c-14,3.1-28.1,6.1-42.1,9.2c-9.6,2.1-19.3,4.2-29.1,6.4   c-0.8,9-1.5,17.8-2.3,26.7c-3.4,0.8-6.5,1.5-10.3,2.3c3.5,8.9,6.8,17.5,10.4,26.6c-3.7,0-6.9,0-10.6,0c-2.8-6.9-5.8-14-8.6-21.2   c-0.4-1,0.7-2.5,1.1-3.8c-2.5-1.6-6.2,2.9-8.7-1.2c-0.5,0.9,0.3,2.6-2.1,3.3c-3.1,1-5.8,3.3-8.9,5.1c1.9,10.7,3.7,21.1,5.6,31.6   c3.7,20.7,7.6,41.4,11.2,62.1c0.5,2.8,0.1,5.7-0.1,8.6c-0.2,2.9-0.7,5.7-1,8.6l0.1-0.2c-0.6,2.2-1.2,4.4-1.9,7   c-8-1.9-15.8-3.7-23.6-5.7c-28.8-7.1-57.6-14.2-86.4-21.3c-0.9-0.2-1.7-0.7-2.6-0.7c-3.1-0.2-4.2-2-4.8-4.8   c-1-4.6-3.6-9.3-2.9-13.5c0.7-4.2,4.6-7.9,7.3-11.8c6.6-9.6,13.3-19.3,20.1-28.8c1.6-2.2,2.1-4.2,1.4-6.9   c-2.6-9.7-4.8-19.6-7.2-29.4c-0.4-1.5-0.9-3-1.5-5.1c-3.1,0.6-6.1,1-9,1.6c-11.8,2.5-23.5,5.2-35.3,7.6c-3.3,0.7-6.8,0.8-10.1,0.6   c-13.8-1.2-27.6-2.6-41.4-3.9c-2-0.2-3.9,0-6.6,0c-0.4,4.1-0.8,8.3-1.2,12.8c4.3,0,8.2,0,12.4,0c7.1,16.3,14.1,32.4,21.2,48.6   c1.6,0.1,3,0.2,4.4,0.3c3.6,0.3,7,4.2,6.5,7.7c-0.4,2.7-1.6,4.8-4.9,4.3c0.1,3,1.2,4.3,4,4.2c2.8-0.1,5.7,0,8.8,0   c0,3.2,0,5.8,0,8.9c-2.1,0.4-4.2,0.7-6.2,1.1c0.6,6.9,1.5,7.8,8.2,8.1c10.4,0.5,20.8,1,32,1.5c-1.5,4.3-2.8,8.2-4.2,12   c-1.5,4-2,9.2-4.9,11.7c-2.8,2.5-8,2.5-12.2,3.4c-26.9,5.6-53.8,11.4-80.8,16.7c-4.7,0.9-9.7,0.4-14.5,0.1   c-20.8-1.6-41.6-3.5-62.4-5.3c-19-1.6-38-3.3-57-5c-5.7-0.5-11.5-0.9-17.8-1.5c-0.9-7.4-1.9-14.6-2.7-21.9c-0.1-1.3,0.7-2.8,1.3-4   c13.9-28.3,27.9-56.5,41.6-84.8c1.7-3.6,4.1-5,7.6-5.6c13.7-2.2,27.3-4.5,41-6.8c1-0.2,1.9-0.5,3.1-1.8c-6.2-2.6-12.3-5.4-18.5-7.9   c-4.7-1.8-9.5-3.2-14.3-4.9c-6.8-2.3-9.4-6.1-9.5-14.5c8.9,3.2,17.5,6.4,26.5,9.7c2.6-3.7,5.1-7.3,8.1-11.6   c-6.1-2.1-11.8-4.1-17.6-6c0.1-0.2,0.1-0.4,0.2-0.6c2.6,0.4,5.2,0.8,8.6,1.3c-0.6-11.7-3.6-22.8-2.3-34.2   c1.3-11.2,1.9-22.5,2.8-33.8c4.6-0.6,8.3,0.4,11.8,2.4c11.2,6.4,22.6,12.7,34.2,19.2c2.5-1.8,5-3.5,7.4-5.3c1.8-1.4,3.9-2.3,6-1.4   c9.3,3.9,18.4,0.7,27.6-0.6c3.2-0.5,6.3-1.2,10.2-1.9c-1.9-1.5-3.2-2.5-4.8-3.8c4.2-36,8.4-72.3,12.8-109.3   c-8.8,1-17.1,1.9-25.8,2.8c-3.8,36.6-7.6,72.9-11.3,109.2c-1.9,0-3.5,0.1-5.1,0c-5.4-0.4-10.8-0.8-15.9,1.6   c-2.4,1.1-4.5,0.2-6.6-0.9c-8.8-4.9-17.7-9.7-26.5-14.5c-3-1.6-5.9-4-9.6-0.6c5.6-3.4,5.3-8.6,5.9-13.7c2.3-21.3,4.7-42.6,7-63.9   c0.9-8.6,1.7-17.2,2.8-25.8c0.4-3.3-0.2-5.8-2.1-8.5c-7-10.1-13.7-20.3-20.6-30.4c-1.9-2.7-2.3-5.2-1.7-8.5   c3.5-19.1,7-38.2,9.9-57.4c1.8-11.9,3.4-23.9,6.8-35.5c2.5-8.3,5.5-16.4,10.3-23.7c1.5-2.3,2.9-4.8,4.9-6.4c4-3.1,4.5-6.6,3.3-11.3   c-1.9-7.7-3.3-15.5-4.9-23.2c-0.9-4.1-3.1-7.1-6.7-9.3c-1.3-0.8-2.4-2-4.2-3.5c2.3-0.8,4.1-1.4,6.5-2.2c-1-6.7-1.9-13.4-2.9-20.4   c-9.2,0.8-12-7.4-18-11.9c5.1-4.8,9.8-9.3,14.5-13.7c26.1-24.3,52.3-48.5,78.3-72.8c3.4-3.2,6.9-5.3,11.6-6.2   c8.5-1.5,16.8-3.8,25.3-5.3c4-0.7,8.3-0.5,12.4-0.4c20.9,0.4,41.8,0.9,62.6,1.4c14.6,0.3,29.1,0.7,43.7,1.1   c14.2,0.4,28.4,0.7,42.6,1.1c11.7,0.3,23.4,0.7,35.1,0.9c2.5,0,4.4,0.9,6.1,2.8c2.9,3.5,5.9,6.8,9.1,10.5c-2.9,3.3-5.6,6.6-8.6,9.6   c-1.7,1.7-2.2,3.5-1.9,5.8c0.8,5.2,1.3,10.4,2.1,15.5c0.2,1.3,0.9,2.7,1.8,3.6c1.7,1.8,3.7,3.4,5.8,5.2c-0.3,1.1-0.5,2.1-1,3   c-3.3,6.1-3,12.4-1.8,18.9c7,36.8,14,73.5,21,110.3c7.6,39.6,15.2,79.2,22.8,118.7c0.1,0.5,0.5,0.9,0.7,1.4L749.3,934.5z    M464.8,1249.6c0.2-3.1,0.4-6.3,0.6-9.2c7.5,0,14.4,0,22,0c-6.6-15.1-13-30-19.6-45.2c-5,0.6-9.5,1.1-14.4,1.7   c2.2,6,4.2,11.4,6.3,17c-2.7,0.3-4.8,0.5-7.3,0.8c1.7,4.7,3.2,8.8,4.7,13.1C459.7,1235.1,462.2,1242.4,464.8,1249.6   c2.1,5.5,4.3,11,6.4,16.5c1.4,3.6,2,7.7,5.7,10.2c-1.7,0-3.4,0-5.2,0c-0.7-1.6-1.4-3.1-2-4.6c-6.9-18-13.6-36-20.8-53.8   c-2.6-6.6-6.2-12.8-9.5-19.4c-8.6,1.1-16.5,2-24.6,3c0.4,2.2,0.6,3.8,0.9,5.4c4.8,22.3,9.7,44.6,14.5,66.9   c1.9,8.9,3.4,17.9,5.2,27.4c33.6-6.7,67.6-13.5,101.6-20.3c0-0.4,0-0.8,0-1.2c-11.1-0.6-22.1-1.2-33.1-1.8c-1.6-3.4-3-6.4-4.5-9.8   c-2,0.2-4,0.3-5.9,0.6c-4.1,0.5-8.2,1.1-12.3,1.6c-6,0.7-9.5-2.1-7.1-8.4c6.6-1.2,13.4-2.5,20.3-3.7c-1.1-4.8-1-4.9-5.1-5.5   c-3.4-0.4-6.8-0.4-10.2-0.8C474.2,1251.2,469.5,1250.4,464.8,1249.6z M748.9,1097.3c9.4,0,18.8,0,28.2,0c-0.8-1.3-1.6-2-2.6-2.2   c-3.2-0.8-4.4-3.1-5.1-6.2c-4.7-23.1-9.4-46.2-14.2-69.2c-9.2-44.9-18.3-89.9-27.5-134.8c-10.3-50.2-20.6-100.5-30.9-150.7   c-1.3-6.5-2.7-12.9-4.1-19.3c-11.8-1.2-163.9-8.4-169.1-7c23.5,131.8,47,263.7,70.5,395.6c12.6-0.5,24.4-1,36.2-1.4   c20.3-0.7,40.6-1.5,60.9-2.2c14.4-0.5,28.8-0.9,43.1-1.4c3.8-0.1,7.6-0.1,11.3-0.3c1.1-0.1,2.2-0.7,3.3-1.1L748.9,1097.3z    M513.2,709.6c-0.9,1-1.2,1.2-1.2,1.4c-4,20.7-7.9,41.4-11.8,62.1c-0.4,2.1-0.2,4.3,0.1,6.4c1.6,9.9,3.3,19.9,5.2,29.8   c1,5.4,1.5,11.3,3.9,16.1c6,12.3,9,25,7.2,38.7c-0.4,2.8-0.4,5.8,0,8.6c3.4,20.4,7,40.8,10.6,61.2c8.6,49.3,17.2,98.6,25.8,147.8   c1,6,2.2,11.9,3.4,18.3c11-1.3,21.4-2.5,32.2-3.8C563.5,967.1,538.4,838.7,513.2,709.6z M423.6,795.5c7.2,5.1,13.7,9,19.5,13.8   c13.2,10.9,22.2,24.6,24.3,41.9c1.7,13.9,2.9,27.9,3.9,41.9c0.4,6.1,0.1,12.3-0.9,18.3c-2,12.8-4.5,25.5-6.8,38.2   c-1.2,6.8-2.3,13.7-3.6,21.2c14-1.6,27.6-2.3,41.1-4.4c3.2-20.8,6.8-41,9.3-61.3c2-16.2,3.6-32.6,3.5-49   c0-22.7-10.8-40.6-28.6-54.3c-6-4.6-12.9-6.7-20.7-6.5c-11.7,0.3-23.4,0.1-35.1,0.1C427.8,795.5,426,795.5,423.6,795.5z    M413.5,1184.1c-1.3,4.4-0.4,8.1,1.5,11.6c5.2,1,9.8,0.7,12.9-4.3c1.5-2.4,4-2.9,6.6-2.9c4.7-0.2,9.3-0.4,13.9-0.6   c1.2-2,2.2-3.7,3.6-6.1c0.9,2.4,1.5,4,2.2,5.7c-2.4,1.4-4.6,2.7-7.2,4.2c1.9,1.6,3.4,2.9,5.7,4.8c1.6-4.3,3.6-7.7,3.9-11.3   c2.7-25.8,5.1-51.6,7.6-77.4c0.4-3.7,0.6-7.4,0.9-11.6c-1.6,0.1-2.8,0.1-4,0.4c-6.6,1.6-13.3,3.2-19.8,5.1c-3.4,1-6.7,1.3-10-0.1   c-4.6-2-9-1.8-13.3,1c-0.9,0.6-1.9,1-3,1.3c-3.1,0.8-4.2,2.9-4.7,5.8c-1.2,7.1-2.5,14.2-3.8,21.2c-0.8,4.6-3,9.5-2.1,13.7   c0.9,4.4,4.7,8.3,7.3,12.4c3.1,4.8,6.3,9.5,9.4,14c-1.5,2.3-3,1.7-4.6,1.2c-5.5-1.6-11.1-3.1-16.6-4.6c-7.9-2.2-8.7-1.9-12.9,5.2   c-0.2,0.3-0.1,0.7-0.2,1.3C395.5,1177.4,404.4,1180.7,413.5,1184.1z M392,756.7c0.3,0.3,0.7,0.7,1,1c0.5-0.4,1.1-0.7,1.6-1.2   c26.7-25.2,53.3-50.5,80.1-75.6c1.8-1.7,4-3.1,6.3-3.8c10.4-2.9,20.8-5.5,31.3-8.1c1.7-0.4,3.5-0.6,5.3-0.5   c11.7,0.5,23.3,1.2,35,1.7c16.7,0.8,33.4,1.5,50.1,2.2c21.2,0.9,42.4,1.6,63.6,2.5c4.1,0.2,8.2,0.6,12.4,0.7c6.5,0.1,13.1,0,19.7,0   c-0.6-2.3-2.4-2.1-4-2.3c-9-0.6-17.9-1.3-26.9-1.9c-22.6-1.4-45.2-2.8-67.8-4.1c-14.9-0.9-29.8-1.6-44.7-2.5   c-9.1-0.5-18.3-1.3-27.4-1.7c-5.5-0.2-11.3-0.9-16.6,0.3c-10.9,2.3-21.5,5.6-32.2,8.7c-2,0.6-4,1.7-5.5,3.1   c-26.2,26-52.3,52.1-78.5,78.2C393.8,754.3,392.9,755.6,392,756.7z M490.6,801.6c-3.2-8.6-6.6-16.7-12.3-23.5c-2.3-2.7-5-5.2-8-7.2   c-7-4.7-14.3-4.6-21.3,0c-7.8,5.1-12.6,12.5-16.2,21.4c2,0.1,3.6,0.2,5.2,0.2c9.4,0,18.7,0,28.1,0c1.9,0,4,0.2,5.7,0.9   C478,795.9,484,798.7,490.6,801.6z M572.9,1207.4c0.4,0.1,0.9,0.1,1.3,0.2c0.8-1.1,1.7-2.2,2.5-3.4c5.9-8.4,12-16.7,17.5-25.3   c3-4.8,6.7-7.7,12.3-8.3c1.4-0.1,2.7-0.8,4.1-1.2c0-2,0-3.9,0-6.5c-13.8,3-27,5.9-40.9,8.9C570.8,1183.9,571.9,1195.7,572.9,1207.4   z M534.1,1102.3c-2.3,1.6-3.8,2.5-5.2,3.5c-15.1,11-30.1,22.3-45.4,33c-4.5,3.2-7.2,6.2-5.3,11.8c0.2,0.4,0.3,0.9,0.7,1.9   c18.9-14.2,37.5-28.2,56.2-42.2C534.8,1107.8,534.5,1105.6,534.1,1102.3z M426.4,791.7c0.4,0.2,0.7,0.4,1.1,0.6   c1.1-2.2,2.2-4.5,3.3-6.7c3.3-6.3,7.2-12.1,12.8-16.5c10.5-8.3,23.5-8.1,33.4,1c3,2.8,5.7,6,8.1,9.3c5,7.2,8.1,15.2,9.6,23.8   c0.3,1.8,1.1,3.4,1.7,5.1c0.4-0.1,0.8-0.3,1.2-0.4c-2.1-11.3-5.7-22.1-11.8-31.9c-3.3-5.2-7.2-9.9-12.5-13.3   c-8.7-5.6-17.8-5.8-26.4-0.3C436.1,769.4,430.5,780.1,426.4,791.7z M471.3,1066.2c1.2-1,2.5-1.9,3.7-2.9   c6.2-5.2,12.4-10.4,18.6-15.6c9.1-7.6,18.2-15.3,27.3-22.9c2.2-1.8,3.5-3.6,1.3-6.6c-1.1,0.8-2.1,1.4-3,2.2   c-10.7,9.1-21.3,18.3-32,27.5c-5.2,4.5-10.4,8.9-15.6,13.4C470.1,1062.6,469.1,1064.1,471.3,1066.2z M521.1,1007   c-1.3,1.1-2.3,1.8-3.3,2.6c-7.8,6.9-15.7,13.8-23.5,20.7c-7.8,6.9-15.6,13.8-23.4,20.7c-1.8,1.6-3.5,3.1-1.5,5.6   c0.5-0.1,0.9-0.1,1.1-0.4c16.3-14.1,32.7-28.2,49.1-42.2C521.7,1012.2,522.1,1010.2,521.1,1007z M525.7,1039.3   c-1.3,1-2.4,1.8-3.5,2.6c-11.3,9.2-22.6,18.4-33.9,27.6c-4.5,3.6-8.9,7.3-13.4,10.9c-1.9,1.5-2.4,3-0.6,4.8c0.3,0,0.5,0,0.6-0.1   c16.8-13.3,33.5-26.7,50.3-40C527.3,1043.4,527.1,1041.6,525.7,1039.3z M472.3,1075.6c0.6-0.1,0.9-0.1,1-0.1   c16.6-13.5,33.2-27.1,49.8-40.6c2.2-1.8,2.2-3.6,1.1-6.5c-2.2,1.8-4,3.2-5.7,4.7c-5.8,4.8-11.6,9.7-17.4,14.6   c-9,7.5-17.9,15.1-27,22.5C472.2,1071.6,470.8,1073,472.3,1075.6z M475.8,1095.1c2.3-1.7,4.5-3.4,6.8-5.1   c14.3-11.1,28.6-22.3,43-33.4c2.3-1.8,3.9-3.5,1.5-6.4c-0.8,0.5-1.6,1-2.2,1.5c-9,7.1-18,14.3-27.1,21.4   c-6.9,5.5-13.8,10.9-20.7,16.4C475.2,1090.9,473.9,1092.3,475.8,1095.1z M528.7,1060.7c-10.9,8.4-21.7,16.6-32.4,24.8   c-6,4.6-12,9.2-18,13.8c-1.9,1.5-3.3,2.9-0.7,5.2c0.8-0.5,1.5-1,2.2-1.5c10.5-7.9,20.9-15.9,31.4-23.8c5.5-4.1,10.9-8.3,16.4-12.3   C529.7,1065.3,531.2,1063.7,528.7,1060.7z M530.4,1071.3c-17.6,13.1-35.1,26.1-52.8,39.3c0.5,1.3,0.8,2.4,1.3,3.8   c4.4-3.2,8.4-6.2,12.5-9.2c12.5-9.2,24.9-18.3,37.4-27.5C530.9,1076.1,533.1,1074.7,530.4,1071.3z M480.8,1123.6   c4.1-2.9,8.2-5.8,12.2-8.7c12.6-9,25.2-18,37.7-27c3.2-2.3,3.2-2.4,1-5.7c-11.4,8.2-22.7,16.4-34.1,24.6   c-5.4,3.9-10.8,7.8-16.2,11.7C479.5,1119.9,478.6,1121.2,480.8,1123.6z M482.3,1133.2c4.7-3.2,9.3-6.5,14-9.7   c12-8.3,23.9-16.6,35.9-24.9c2.1-1.5,3.8-2.8,1.5-5.7c-1.2,0.7-2.4,1.4-3.6,2.2c-7.2,5-14.4,10.1-21.7,15.1   c-8.4,5.9-16.8,11.7-25.2,17.6C481.4,1129.2,479.8,1130.5,482.3,1133.2z"
   id="path1906" />
	<path
   d="M959.6,904c0,59.3,0,118.5,0,178.6c-17.3,0.1-34.3,0-51,0c-0.4-0.4-0.6-0.5-0.7-0.6c-0.1-0.1-0.3-0.3-0.3-0.4   c-0.1-1.1-0.3-2.1-0.3-3.2c0-77.1,0-154.2,0.1-231.4c0-0.5,0.3-1,0.5-1.9c1.5-0.1,3.1-0.3,4.6-0.3c23.1,0,46.1,0,69.2,0   c5,0,5,0,6.7,4.9c17,48,33.9,96,50.9,144c0.5,1.5,1.1,3,2.2,5.8c6.8-17.9,12.6-35,18.7-52c6.1-16.9,12.1-33.9,18.1-50.8   c6.1-17.1,12.1-34.2,18.3-51.5c26.5,0,52.7,0,79.1,0c0,79.2,0,158,0,237.2c-17.3,0-34.4,0-51.9,0c0-59.7,0-119.2,0-178.7   c-0.7,0-0.9,0-1.1,0c-0.2,0.1-0.4,0.2-0.4,0.3c-20.5,59.3-40.9,118.7-61.5,178.4c-13.5,0-26.9,0-40.7,0   c-19.7-59.6-39.4-119.1-59.1-178.6C960.5,903.7,960,903.9,959.6,904z"
   id="path1908" />
	<path
   d="M2055.8,982.3c20.1,33.5,39.9,66.3,60,99.8c-2.4,0.2-4.1,0.4-5.8,0.4c-17.5,0-35-0.1-52.4,0.1c-3.8,0-5.7-1.2-7.5-4.6   c-14.6-28.1-29.3-56.1-44.1-84.2c-0.1-0.2-0.2-0.3-0.2-0.5c-1.4-4.3-4.2-6-8.9-5.7c-6.3,0.5-12.6,0.1-19.5,0.1   c-0.6,16-0.2,31.6-0.3,47.1c-0.1,15.6,0,31.2,0,47.2c-17.6,0-34.6,0-51.6,0c-1.1-4.4-1.2-232.2,0-237.5c1.6,0,3.4,0,5.1,0   c30.1,0,60.2-0.2,90.3,0.1c15.5,0.2,30.9,2.1,45.4,8c24.2,9.8,37.3,27.9,39.9,53.7c1,9.7,0.9,19.4-1.5,29   c-6.1,24.7-21.2,40.3-46.1,46.1C2058.1,981.8,2057.4,981.9,2055.8,982.3z M1977.4,942.3c15.9,0,31.2,0.2,46.5-0.1   c4.4-0.1,8.9-1.4,13.1-2.8c5.6-1.9,10.5-5.4,12.6-11.1c5.1-13.4,2.7-29.7-14.3-35.3c-5.9-1.9-12.3-2.9-18.5-3.2   c-11.9-0.5-23.8-0.2-35.7-0.1c-1.2,0-2.4,0.2-3.8,0.4C1977.4,907.7,1977.4,924.9,1977.4,942.3z"
   id="path1910" />
	<path
   d="M1527.5,941.8c7.9-8.4,15.7-16.7,23.6-25.1c21.4-22.9,42.8-45.8,64.1-68.7c1.8-1.9,3.5-3.3,6.4-3.3   c20.5,0.1,41.1,0.1,61.6,0.1c0.8,0,1.7,0.2,3.8,0.4c-35.3,37.2-70.3,73.4-105.3,110.2c38,42.1,75.8,84.1,114.1,126.5   c-1.6,0.3-2.7,0.7-3.9,0.7c-21.8,0-43.6,0-65.4,0.1c-3.3,0-5.2-1.5-7.2-3.8c-22.8-26.7-45.7-53.4-68.5-80.1   c-6.9-8.1-13.8-16.2-20.7-24.2c-0.9-1-1.9-1.9-3.8-3.7c0,37.8,0,74.4,0,111.3c-17.6,0-34.7,0-52.1,0c0-79,0-157.8,0-236.6   c3.8-1.2,46-1.4,52-0.2c0,31.9,0,63.9,0,95.8C1526.6,941.5,1527,941.6,1527.5,941.8z"
   id="path1912" />
	<path
   d="M1883.3,1082.2c-56,0-111.6,0-167.4,0c0-79.2,0-158,0-237.1c53.8,0,107.2,0,160.6,0c1,4,1.4,40,0.4,48.6   c-7,0-14.2,0.1-21.3,0.1c-7.2,0-14.4,0-21.6,0s-14.4,0-21.6,0s-14.4,0-21.6,0c-7.2,0-14.4,0-21.5,0c-1.1,4.2-1.4,34.6-0.5,43.4   c33.9,0,67.8,0,102.1,0c0,16.5,0,32.4,0,48.7c-34.1,0-67.9,0-101.6,0c-1.2,4.2-1.5,39.5-0.4,47.7c38,0,76,0,114.4,0   C1883.3,1050.1,1883.3,1065.9,1883.3,1082.2z"
   id="path1914" />
	<path
   d="M3168,1082.3c-55.8,0-111.2,0-166.6,0c-1.1-4.3-1.3-231.9-0.1-237.2c53.3,0,106.7,0,160.4,0c0,16.3,0,32.2,0,48.8   c-36.2,0-72.2,0-108.4,0c0,14.7,0,28.6,0,43.2c6.8,0.6,13.5,0.2,20.3,0.3c6.8,0.1,13.7,0,20.5,0c6.8,0,13.7,0,20.5,0   c6.8,0,13.7,0,20.5,0c6.8,0,13.6,0,20.7,0c0,16.3,0,32.1,0,48.4c-34.1,0-68,0-101.8,0c-1.3,4.3-1.6,39.8-0.5,47.8   c38,0,76,0,114.4,0C3168,1050.1,3168,1065.8,3168,1082.3z"
   id="path1916" />
	<path
   d="M2599.4,844.7c13.3,0,26.8,0,40.3,0c2.6,0,3.4,1.6,4.2,3.4c3.9,9.1,7.9,18.1,11.9,27.2c29.1,67,58.3,134,87.4,201   c0.8,1.8,1.4,3.6,2.3,5.9c-20,0-39.5,0-59.4,0c-6.7-16.4-13.4-32.9-20.2-49.5c-30.6,0-61,0-91.9,0c-1.5,3.8-3.1,7.8-4.7,11.7   c-4.5,11.4-9,22.8-13.4,34.2c-1,2.7-2.2,4.1-5.4,4c-17.1-0.2-34.2-0.1-51.4-0.1c-0.7,0-1.4-0.2-2.1-0.3   C2497.6,1078.3,2595.9,850.1,2599.4,844.7z M2619.7,916.4c-0.4,0-0.9,0.1-1.3,0.1c-9.1,23.4-18.3,46.8-27.4,70.2   c7,1.2,52.4,0.9,56.4-0.4C2638.1,963,2628.9,939.7,2619.7,916.4z"
   id="path1918" />
	<path
   d="M1448.6,1082.3c-20.3,0-39.7,0-59.6,0c-6.7-16.4-13.4-32.9-20.2-49.6c-30.5,0-61.1,0-92,0c-6.4,16.3-12.9,32.7-19.5,49.4   c-19.1,0-38.2,0-58.3,0c34.3-79.4,68.4-158.2,102.5-237.2c14.7,0,29.1,0,43.9,0C1379.6,923.8,1413.9,1002.6,1448.6,1082.3z    M1293.7,987.1c19.1,0,37.5,0,56.8,0c-9.5-24-18.8-47.5-28-70.9c-0.4,0-0.7,0-1.1-0.1C1312.2,939.6,1303.1,963.1,1293.7,987.1z"
   id="path1920" />
	<path
   d="M2334.3,1082.2c0-79.1,0-157.9,0-237.1c1.8-0.1,3.4-0.4,4.9-0.4c29.5,0,59.1-0.2,88.6,0.1c13.7,0.2,27.3,1.8,40.4,6.1   c20.2,6.7,34.7,19.5,41.3,40.1c3.8,12,4.2,24.4,3,36.9c-1,10.9-3.9,21.2-9.7,30.6c-9.3,15-23.3,23.1-39.9,27.3   c-12.3,3.1-24.8,4.2-37.4,4.4c-11,0.1-22,0-33,0c-1.8,0-3.5,0.2-5.8,0.3c0,30.7,0,61,0,91.7   C2369,1082.2,2351.9,1082.2,2334.3,1082.2z M2387.1,890.6c0,17.8,0,35.9,0,54.2c1.3,0.2,2.3,0.4,3.4,0.4   c12.4-0.1,24.9,0.1,37.3-0.4c4.7-0.2,9.6-1.4,14.1-3.1c11.2-4.3,16.4-12.5,16.3-24.7c0-11.3-5.4-19.1-16.4-23.5   c-2.7-1.1-5.4-2.1-8.2-2.5c-15.2-2.3-30.5-1.3-45.8-1.1C2387.6,890,2387.5,890.2,2387.1,890.6z"
   id="path1922" />
	<path
   d="M2124.1,1058.3c12-13.2,23.5-25.9,34.9-38.5c0.7-0.8,1.3-1.7,2.9-3.7c0.9,1.7,1.3,2.8,2,3.6c11.3,13.3,26.1,19.6,43.2,20   c8.8,0.2,17.5-1.6,25.3-6.4c9.6-5.9,13.3-16.2,9.4-26.1c-1.7-4.4-4.8-7.5-8.6-10.1c-9.3-6.4-20-9.6-30.6-13.2   c-10.2-3.5-20.4-6.9-30.5-10.6c-3.7-1.4-7.2-3.4-10.6-5.4c-17.1-10.2-28-24.4-29.4-45c-1.7-24.3,5.4-45.1,23.8-61.5   c11.7-10.5,25.6-16.6,40.8-19.8c24.1-5,48-3.4,71.1,5.1c10.2,3.7,19.4,9.4,27.9,17.3c-12,13.2-23.8,26.1-35.9,39.3   c-1.2-1-2.1-1.8-3-2.6c-6.3-6.4-14.3-9.4-22.8-11.5c-12.6-3-24.7-1.7-36.1,4.5c-9.7,5.3-13.5,15.2-10.2,25.2c1.4,4.3,4.1,7.7,8,9.8   c5.8,3.1,11.8,6.3,18,8.5c9.3,3.3,19,5.6,28.2,8.9c7.9,2.8,15.9,5.8,23.2,9.9c19.4,10.8,29.9,27.3,30.6,49.9   c0.6,18.8-3.2,36.1-15,51.2c-8.7,11.1-19.7,19.1-32.8,23.8c-31.2,11.1-62.4,10.6-93.2-2C2143.5,1074.2,2133.5,1067.2,2124.1,1058.3   z"
   id="path1924" />
	<path
   d="M2926.9,1014.2c14.5,10.9,29,21.6,43.6,32.6c-5.5,8.5-12.2,15.3-20.1,21.1c-16.1,11.8-34.3,18-54,19.9   c-27,2.6-52.8-1.7-76.9-14c-33.5-17.1-53.3-44.9-60.6-81.5c-5-25.3-4.1-50.6,4.8-75.1c14.3-39.3,42.6-63.1,82.5-73.8   c15.4-4.2,31.3-5.4,47.1-4.2c23.6,1.7,45.1,9.1,62.9,25.3c3,2.8,5.7,6,8.9,9.4c-13.7,11.3-27,22.2-41.2,33.8   c-1.4-1.8-2.5-3.7-4-5.2c-13.4-12.5-29.8-16.3-47.5-14.5c-32.6,3.5-53.3,27.5-59.4,56.6c-4.3,20.5-2.3,40.5,7.6,59.3   c9.7,18.3,24.4,30.8,45.1,34.5c23.6,4.3,43.8-2.1,58.9-21.6C2925.3,1015.9,2926,1015.2,2926.9,1014.2z"
   id="path1926" />
	<path
   d="M719.5,617.8c-2.1,0.7-4.1,1.4-6.2,2.2c-0.4,4,0.5,8.6-5.3,10.3c-2-2.5-4.4-4.9-6.1-7.8c-2.1-3.5-5.1-4-8.7-4   c-14.6,0-29.2-0.1-43.8-0.3c-25.4-0.3-50.8-0.7-76.1-1.1c-22-0.3-43.9-0.6-65.9-1.1c-6.1-0.2-11.8,1.4-17.5,2.7   c-7.5,1.7-15,3.6-22.5,5.4c-3.2,0.7-5.8,2.3-8.3,4.6c-30,27.5-60.1,54.8-90.2,82.2c-1.2,1.1-2.5,2-4.1,3.4   c-4.6-4.4-9.2-8.7-13.6-12.8c-0.1-3.4,1.3-5.8,3.3-8.2c2.8-3.3,5.4-6.8,7.4-10.6c1.6-3.1,2.4-6.7,3.3-10.1c2.3-8.3,4.4-16.7,6.6-25   c0.1-0.3,0.3-0.7,0.4-1c4.5-14.6,11.5-27.8,22-39.2c12.1-13.1,23.1-27.2,35.5-39.9c11.3-11.6,23.7-22.1,35.8-32.8   c6.4-5.6,13.7-9.9,22.7-12.8c0.6-9.1,1.4-18.3,1.8-27.6c0.2-4.5,0.4-8.8,2.4-13.1c2.2-4.7-0.7-8.7-3.4-12.2   c-2.9-3.8-5.4-7.6-5.1-13.3c1.3,1,2.1,1.7,3.3,2.7c6.2-3.8,12.7-7.6,20.6-1.7c0-3,0-5.1,0-7.6c-1.6-0.8-3.4-1.7-5.2-2.4   c-7.1-3.1-9-2.7-14.4,3.3c-0.7,0.8-1.4,1.5-2.6,2.2c3.9-4.3,2.3-9.2,2-13.9c-0.3-7-0.6-14-0.8-21c-0.1-3.4,0-6.7,0.7-10.3   c3.6,4.3,7.5,8.1,8.4,13.9c1.2,7.6,2.8,15.2,4.1,22.5c0.6,0.5,0.8,0.8,1.1,0.9c9.7,3.2,11.4,8.5,9,19.2c-0.9,3.9-0.9,7.3,0.1,11   c0.6,2.3,1.5,4.2,3.3,6c1.8,1.8,3.4,4.2,4.4,6.6c4.3,10.1,8.5,20.2,12.5,30.4c1.3,3.4,3.1,4.9,7,5.3c19.7,1.9,39.3,4.2,59,6.4   c20.7,2.2,39.6,8.8,55.8,22.2c2.7,2.3,5.1,5,7.4,7.9c5.5,6.9,10.7,14,16.1,21c2.5,3.2,5.7,5.3,9.4,7   C699.4,593.7,711.4,603.4,719.5,617.8z M605.5,596c0.7,2.4,2.7,2,4.5,2.1c3,0.2,6.1,0.3,9.2,0.4c11.2,0.2,22.3,0.5,33.5,0.6   c0.2,0,0.5-0.4,1.1-0.9c-1-0.6-1.8-1.1-2.7-1.5c-5.4-2.6-9.2-6.6-11.6-12.2c-2.2-5.3-5-10.3-7.6-15.5c-5.9-12.2-14.5-22.3-24-31.7   c-2.7-2.7-6-3.9-9.6-4.3c-5.6-0.5-11.1-0.8-16.7-1.3c-8.9-0.8-17.9-1.8-26.8-2.7c-12.5-1.3-25-3-37.5-3.8   c-11.5-0.7-23.1-0.7-34.3,2.3c-4.4,1.2-8.3,3-11.7,6.3c-14.4,14.1-29,28-43.3,42.2c-12.1,11.9-23.2,24.6-33.5,38.1   c-8.1,10.6-14.3,22-18.4,34.6c-1.9,5.8-3.8,11.6-5.5,17.5c-2.6,8.9-5,17.9-11.3,25.2c1.2-0.5,2.3-1.1,3.2-1.9   c16.4-15.4,32.8-30.8,49.2-46.2c2-1.8,2.4-3.7,2.1-6.2c-1.1-9.4-0.5-18.7,1.2-27.9c2.6-14,10.9-24.7,20.5-34.8   c-13.4,19.6-18.1,41.7-20.3,65.7c11.7-11,22.8-21.3,34.8-32.6c-2.3,0.6-3.3,0.9-4.4,1.2c-0.1-0.5-0.1-0.7-0.1-0.8   c0.3-0.5,0.5-0.9,0.9-1.4c4.5-5.4,7.1-11.6,7.8-18.6c0.9-8.6,2.1-17.2,2.7-25.8c0.4-5.3,2.8-9.5,6.3-13.4   c-2.3,6.5-3.2,13.3-2.9,20.1c0.5,11.8-0.3,23.4-6.2,34c-0.1,0.1,0,0.3,0.1,1.1c7-1.4,14-2.8,21-4.3c11.8-2.6,23.4-5.3,35.7-4.7   c9.2,0.5,18.4,0,27.5-0.1c1.3,0,2.7-0.2,5.3-0.4c-7.2-4.6-12.8-8.9-13-17.1l-0.1,0.1c3.4,5.8,7.8,10.6,12.8,15   c1.9,1.7,3.8,2.4,6.2,2.6c8.2,0.5,16.5,1.2,24.7,1.7c8.6,0.5,17.2,0.8,25.8,1.3C602,598.1,604.1,598,605.5,596L605.5,596z    M611.2,535.8c-0.2,0.3-0.4,0.6-0.5,0.9c1.2,1.3,2.3,2.6,3.5,3.8c10.7,10.6,19.6,22.5,23.8,37.3c1.6,5.8,5.1,10.2,9.8,13.8   c2.8,2.2,5.6,4.5,8.6,6.5c1.4,0.9,3.2,1.6,4.9,1.7c12.4,0.6,24.8,1,37.2,1.4c0.9,0,1.8-0.3,3.6-0.7c-6.5-3.7-12-7.1-17.7-10.1   c-5.3-2.9-9.8-6.6-13.6-11.3c-5.3-6.6-10.5-13.2-15.9-19.8c-5.4-6.7-12-11.8-20.2-14.8c-4.7-1.7-9.3-3.8-14-5.6   C617.7,537.8,614.4,536.9,611.2,535.8z M527.4,519.3c-4.5-11.9-8.3-22.9-12.9-33.6c-1.2-2.8-4.3-5.7-7.2-6.7   c-2.7-0.9-6.5,0-9.4,1.3c-1.9,0.8-2.9,3.6-4.7,6c2.9-0.4,5-0.7,7.2-1c1.1,10.7,2.2,21,3.3,31.4C511.7,517.6,519,518.4,527.4,519.3z    M498,443c-0.9-8.5-2.7-16-4.4-23.4c-0.4-1.6-1.6-3-2.4-4.4c-0.3,0.1-0.7,0.3-1,0.4c1.6,8.6,3.2,17.1,4.9,25.7   C495.2,441.8,496.4,442.1,498,443z"
   id="path1928" />
	<path
   d="M1739.9,717.6c0,26.9,0,53.8,0,81c-9.1,0-17.7,0-26.5,0c0-39.3,0-78.5,0-118.2c1.2-0.1,2.6-0.4,4-0.4c9,0,18,0.1,27-0.1   c3.3-0.1,5.1,1,6.8,3.8c14.2,23.6,28.6,47.1,42.9,70.6c1.2,1.9,2.4,3.8,4.6,5.5c0-26.3,0-52.7,0-79.4c9.1,0,17.6,0,26.6,0   c0,39.3,0,78.6,0,118.2c-11.4,0-22.7,0-34.4,0c-16.4-26.9-33-54.1-49.6-81.2C1740.7,717.5,1740.3,717.6,1739.9,717.6z"
   id="path1930" />
	<path
   d="M1426.5,760c0-26.4,0-52.7,0-79.8c9-0.3,17.6-0.1,26.1-0.1c1.2,4,1.6,109.5,0.4,118.9c-1.8,0-3.7,0-5.6,0   c-7.9,0-15.9-0.2-23.8,0.1c-3.6,0.1-5.5-1.2-7.3-4.1c-14.8-24.5-29.8-48.9-44.7-73.3c-1-1.6-2.1-3.2-4-4.6c0,27.1,0,54.1,0,81.6   c-9.1,0-17.6,0-26.4,0c0-39.3,0-78.5,0-118.1c1.3-0.1,2.7-0.4,4.1-0.4c9,0,18,0.1,27-0.1c3.3-0.1,5.1,1.1,6.8,3.9   c14.2,23.6,28.6,47.1,43,70.6c1.2,1.9,2.4,3.8,3.6,5.7C1425.9,760.1,1426.2,760,1426.5,760z"
   id="path1932" />
	<path
   d="M1567.2,739.8c0-18.2,5.3-34.4,19.2-46.9c9.7-8.7,21.2-13.3,34-15c12.4-1.7,24.5-0.8,36.2,3.5   c21.8,8.1,34.4,23.9,38.2,46.9c1.7,10.7,1.3,21.2-1.9,31.5c-6.3,20.8-20.4,34-41.1,39.8c-14.7,4.1-29.6,3.8-44.2-1   c-23.4-7.6-38.9-28-40.4-52.8C1567.1,743.8,1567.2,741.8,1567.2,739.8z M1667.9,740.2c0-1.4,0.1-2.9,0-4.3   c-1.4-15.1-8.4-26.3-22.8-31.9c-14.4-5.5-31-1.9-40.8,9c-9.6,10.6-11.5,23.4-8.5,36.9c5.9,26.1,32.3,32.8,51.3,24.6   C1661.8,768,1667.7,755.6,1667.9,740.2z"
   id="path1934" />
	<path
   d="M1290.2,680.3c9.2,0,17.6,0,26.5,0c0.1,1.7,0.3,3.3,0.3,4.9c0,22.9,0.2,45.7-0.1,68.6c-0.1,5.5-0.9,11.2-2.4,16.5   c-4.3,15.2-14.5,25-29.5,29.5c-12,3.6-24.2,3.5-36.2,0c-18.5-5.4-30.5-20.8-31.8-40.6c-0.4-6.8-0.2-13.7-0.2-20.5   c0-17.3,0-34.6,0-51.9c0-2,0-3.9,0-6.3c8.8,0,17.4,0,26.6,0c0.1,1.7,0.2,3.6,0.2,5.5c0,21.8,0,43.6,0,65.4c0,7.1,1.7,13.4,6.5,18.9   c9.8,11.2,31.4,10.1,38.1-7.3c1.4-3.8,2-8.1,2.1-12.1c0.2-21.4,0.1-42.9,0.1-64.3C1290.2,684.7,1290.2,682.7,1290.2,680.3z"
   id="path1936" />
	<path
   d="M1080.3,798.8c17.2-39.8,34.2-79.2,51.2-118.5c7.5,0,14.7,0,22.2,0c17.1,39.3,34.2,78.7,51.5,118.5c-10.3,0-20,0-30.1,0   c-3.3-8.1-6.7-16.3-10.1-24.5c-15.3,0-30.3,0-45.5,0c-3.3,8.2-6.5,16.3-9.8,24.6C1100,798.8,1090.5,798.8,1080.3,798.8z    M1141.8,715.7c-4.9,12.5-9.3,23.8-13.8,35.3c9.4,0,18.2,0,27.8,0C1151.1,739.3,1146.7,728,1141.8,715.7z"
   id="path1938" />
	<path
   d="M992.7,689.8c-6.1,6.7-11.9,13-18,19.7c-4.1-3.9-8.9-6.2-14.2-7.3c-5.5-1.1-10.8-0.3-15.8,2c-3.8,1.8-6.4,4.8-6.6,9.1   c-0.2,4.4,2,7.7,5.9,9.5c4.9,2.2,10,4.1,15,5.9c4.4,1.6,8.9,2.7,13.3,4.4c5.1,1.9,9.6,4.9,13.4,8.9c7.3,7.8,8.3,17.4,6.9,27.3   c-2,14-9.9,23.9-23.1,28.8c-18.5,6.9-36.7,5.9-54-4.2c-3-1.8-5.7-4.2-9-6.6c6.5-7.2,12.7-13.9,18.8-20.6c2.5,2.2,4.5,4.2,6.9,5.8   c7.8,5.4,16.3,6.5,25.2,3.6c3.9-1.2,7.1-3.6,8.4-7.8c1.4-4.3,0-8.8-4.2-11.3c-4.6-2.7-9.7-4.7-14.6-6.7c-5.7-2.2-11.6-3.8-17.2-6.2   c-9.5-4.1-16.9-10.6-18.6-21.4c-1.9-11.9,0.5-22.9,9.1-32c6.2-6.5,13.8-10.2,22.5-12.1c15.2-3.2,29.7-1.6,43.3,6   c1.3,0.7,2.4,1.6,3.6,2.4C990.4,687.7,991.2,688.5,992.7,689.8z"
   id="path1940" />
	<path
   d="M1560.4,680.7c0,7.4,0,14.9,0,22.9c-11.1,0-22,0-33.5,0c0,32,0,63.4,0,95.1c-9.1,0-17.5,0-26.6,0   c-0.2-6.2-0.1-12.4-0.1-18.6c0-6.3,0-12.6,0-18.9s0-12.6,0-18.9c0-6.3,0-12.6,0-18.9c0-6.3,0-12.6,0-19.4c-11.2,0-22.1,0-33.7,0   c-0.3-8-0.1-15.5-0.1-22.9C1470.2,679.8,1553.2,679.5,1560.4,680.7z"
   id="path1942" />
	<path
   d="M1001,703.7c0-8.1,0-15.5,0-23.4c31.2,0,62.2,0,93.6,0c0,7.6,0,15.1,0,23.2c-10.9,0-21.8,0-33.2,0c0,32,0,63.4,0,95.1   c-9.1,0-17.7,0-26.9,0c0-31.5,0-62.9,0-94.9C1023,703.7,1012.1,703.7,1001,703.7z"
   id="path1944" />
	<path
   d="M664,1294.7c0.7-2,1.5-3.9,2-5.9c0.5-1.9,0.8-3.8,1.3-6.2c25-5.3,50.1-10.6,76-16.1c-1.8,6.2-3.2,11.3-4.7,16.5   c-24.6,5.3-49,10.6-73.7,15.9c-0.3-1.7-0.5-3.1-0.7-4.4C664.1,1294.5,664,1294.7,664,1294.7z"
   id="path1946" />
	<path
   d="M792.6,1223.7c-3,7.2-5.5,13.3-8.2,19.3c-0.4,1-1.8,1.8-2.8,2.1c-14.2,3.7-28.5,7.2-43.3,10.9c-2.7-5.2-5.4-10.4-8.4-16.2   C750.7,1234.4,770.9,1229.2,792.6,1223.7z"
   id="path1948" />
	<path
   d="M749.4,934.7c-0.2-3.3,1.9-5.3,4.3-6.9c4.7-2.9,6.2-7.2,6.9-12.5c2.4-18.4,4.9-36.7,8.1-55c3.9-21.7,1.3-42.6-5-63.3   c-0.1-0.2-0.1-0.4-0.1-0.5c-4.4-13.2-24.9-29.8-38.7-31.2c-0.8-0.1-1.6-0.3-2.9-0.5c7.3-3,21.6-0.5,28.2,5.4   c8.8,7.8,15.8,16.7,18.8,28.3c2.8,10.4,4.7,21,5.6,31.8c0.8,9.1-1.4,17.9-2.6,26.8c-2.9,21.6-6.3,43.1-9.2,64.6   c-0.5,3.5-1.8,5.5-4.8,6.9c-2.1,1-4,2.3-6.1,3.4c0.7,6.1,1.4,12,2.1,17.8c-0.3,0-0.6,0.1-0.8,0.1c-0.8-4-1.6-8-2.6-12   c-0.3-1.2-1-2.2-1.5-3.4C749.3,934.5,749.4,934.7,749.4,934.7z"
   id="path1950" />
	<path
   d="M792.1,1221.7c-3.5,1.8-4.7-0.3-6.1-2.2c-6.9-10.1-13.7-20.2-20.6-30.3c-10.1-14.9-20.2-29.7-30.3-44.6   c-0.9-1.3-1.7-2.7-3-4.7c2.4-0.1,4.2-0.2,6.1-0.3C756.3,1167,774.2,1194.3,792.1,1221.7z"
   id="path1952" />
	<path
   d="M743.5,1214.3c-8.1,2.3-15.4,4.3-23.3,6.6c-0.7-2.8-1.4-5.3-2.1-8.3c6.4-3.1,12.6-6.1,19.3-9.4   C739.2,1206.7,741.1,1210.1,743.5,1214.3z"
   id="path1954" />
	<path
   d="M713.8,1203.6c-1.8-3.1-3.3-5.7-5.1-9c6.1-2,11.7-4,17.7-6c1.4,3.6,2.7,6.7,4.1,10.2   C725.1,1201.3,719.6,1202.3,713.8,1203.6z"
   id="path1956" />
	<path
   d="M720.5,1160.9c-4.3,0-7.9,0-11.7,0c-2-5.1-4-10-6.2-15.6c3.1-1,5.9-2,9.1-3C714.8,1148.7,717.5,1154.6,720.5,1160.9z"
   id="path1958" />
	<path
   d="M688.9,1211.4c6.8,18.2,13.5,36.5,20.4,55.2c-3.1,1.6-6.1,3.1-9.1,4.7c-0.1-0.6-0.4-1.1-0.3-1.2c4.4-3.6,4.2-7.7,2.4-12.8   c-4.9-14.4-9.2-29.1-13.7-43.7c-0.2-0.6-0.3-1.3-0.4-2C688.5,1211.6,688.7,1211.5,688.9,1211.4z"
   id="path1960" />
	<path
   d="M340.5,1154.1c1.5-1.7,3.1-3.4,4.6-5.1c0.4,0.3,0.7,0.6,1.1,0.9c-1.5,1.8-3,3.6-4.5,5.3   C341.3,1154.9,340.9,1154.5,340.5,1154.1z"
   id="path1962" />
	<path
   d="M635.9,861.7c-18.6-0.2-34.7-7.2-48.6-19.2c-17.3-14.9-28.1-33.7-30.6-56.5c-2.4-22.1,3.2-41.6,21.9-55.4   c11-8.1,23.5-10.7,37.2-9.7c34.6,2.6,67.6,34.5,73.4,71.8c1.8,11.6,1.3,23-2.7,34.1C678.2,850.1,657.4,862.2,635.9,861.7z    M683.2,804.4c-0.5-4.3-0.8-8.6-1.6-12.8c-6-31.6-33.3-57-61-61.2c-27.5-4.2-53.9,12.1-56.8,44.3c-3.5,38.6,26.8,74.5,61.2,80.1   c24.1,4,43.6-6.7,52.6-25.7C681.4,821.3,683.1,813.1,683.2,804.4z"
   id="path1964" />
	<path
   d="M749,1097.1c-9.5,0.2-19.1,0.3-28.6,0.5c-16,0.3-32,0.7-48,1.1c-14.2,0.3-28.4,0.7-42.6,1c-1.2,0-2.4-0.2-4-0.3   c-0.9-4.1-1.8-8.1-2.7-12.1c5.6-1.5,112.5-3.7,121.6-2.6c1.3,4.1,2.7,8.3,4.1,12.5C748.9,1097.3,749,1097.1,749,1097.1z"
   id="path1966" />
	<path
   d="M713.1,977.2c0.4,2.4,0.8,5,1.2,7.5c-4.2,1.2-44.2,1.6-53.4,0.6c-0.5-2.4-1.1-4.9-1.9-8.1   C677.2,977.2,694.9,977.2,713.1,977.2z"
   id="path1968" />
	<path
   d="M662.8,995c-0.2-0.7-0.5-1.5-0.7-2.4c-0.3-1.5-0.5-3.1-0.9-5.1c18,0,35.7,0,53.8,0c0.4,2.3,0.8,4.7,1.2,7.1   C712.2,995.8,669.4,996.1,662.8,995z"
   id="path1970" />
	<path
   d="M654.7,977.8c0.5,2.4,0.9,4.7,1.3,6.8c-4,1.4-43.3,1.8-52.2,0.6c-0.5-2-1-4.2-1.5-6.3C606.7,977.3,640.9,976.6,654.7,977.8   z"
   id="path1972" />
	<path
   d="M718.6,1005.2c-18.4,0-36,0-53.8,0c-0.5-2.4-1-4.6-1.6-7.3c18.2-0.3,35.9-0.6,53.8-0.9C717.5,1000,718,1002.2,718.6,1005.2   z"
   id="path1974" />
	<path
   d="M660.9,1008.3c0.5,2.3,0.9,4.3,1.4,6.4c-6.9,1.3-40.3,2-51.9,0.9c-0.6-2.1-1.2-4.4-2-7.3   C626.1,1008.3,643.2,1008.3,660.9,1008.3z"
   id="path1976" />
	<path
   d="M668.9,1025.5c-0.5-2.3-1-4.6-1.6-7.4c18.2,0,35.8,0,53.8,0c0.4,2,0.8,4.1,1.3,6.5c-1,0.2-1.8,0.5-2.6,0.5   c-15.4,0.2-30.9,0.4-46.3,0.6C672.1,1025.8,670.7,1025.6,668.9,1025.5z"
   id="path1978" />
	<path
   d="M656.7,987.3c0.6,3.2,1,5.4,1.5,8.1c-17.6,0-34.6,0-52.2,0c-0.5-2-1.1-4.2-1.8-7.2C621.8,987.8,639,987.6,656.7,987.3z"
   id="path1980" />
	<path
   d="M667.2,1038.6c0.5,1.9,0.9,4,1.6,6.8c-17.4,0.4-34.3,0.7-51.4,1.1c-0.6-1.4-1.2-2.4-1.6-3.6c-0.4-1.2-0.6-2.4-0.9-3.6   C618.2,1038.1,659.5,1037.5,667.2,1038.6z"
   id="path1982" />
	<path
   d="M623.5,1076.9c-0.9-2.8-1.7-5-2.4-7.2c3.9-1.4,46.5-1.7,52.5-0.4c0.4,1.9,0.8,4,1.3,6.3   C657.7,1076,640.8,1076.4,623.5,1076.9z"
   id="path1984" />
	<path
   d="M666.7,1014.9c-0.5-2.2-0.9-4.3-1.4-6.8c18.3,0,36,0,53.9,0c0.4,2.1,0.8,4.2,1.3,6.8   C702.5,1014.9,684.9,1014.9,666.7,1014.9z"
   id="path1986" />
	<path
   d="M662.9,1017.7c0.6,2.8,1,5,1.6,7.8c-17.6,0-34.6,0-52.1,0c-0.5-1.9-1.2-4.1-1.9-6.7c1.6-0.2,2.9-0.4,4.3-0.4   c9.4,0,18.7,0,28.1,0c4.8,0,9.7-0.4,14.5-0.6C659.1,1017.7,660.9,1017.7,662.9,1017.7z"
   id="path1988" />
	<path
   d="M672.7,1045.1c-0.4-2.1-0.7-4.2-1.2-6.6c18.1,0,35.6,0,53.6,0c0.4,2.1,0.7,4.1,1.2,6.6   C708.2,1045.1,690.9,1045.1,672.7,1045.1z"
   id="path1990" />
	<path
   d="M618.7,1058.9c18,0,35.2,0,52.7,0c0.5,2.3,0.9,4.3,1.5,7.2c-17.5,0-34.3,0-51.7,0C620.6,1064.3,619.8,1062,618.7,1058.9z"
   id="path1992" />
	<path
   d="M670.9,1035.7c-0.5-2.9-0.9-4.9-1.4-7.4c18,0,35.6,0,53.7,0c0.4,1.9,0.7,3.8,1.1,6.2   C706.5,1036.2,688.9,1035.2,670.9,1035.7z"
   id="path1994" />
	<path
   d="M665.1,1028.6c0.5,2.2,0.9,4.1,1.3,6c-3.8,1.4-43.8,2-51.7,0.9c-0.4-0.9-0.8-1.9-1.1-2.9c-0.3-1.2-0.5-2.4-0.8-4   C630.3,1028.6,647.5,1028.6,665.1,1028.6z"
   id="path1996" />
	<path
   d="M608,1005.3c-0.6-2.4-1.1-4.5-1.7-7.1c17.6,0,35,0,52.6,0c0.4,2.2,0.9,4.4,1.4,7.1C642.7,1005.3,625.6,1005.3,608,1005.3z"
   id="path1998" />
	<path
   d="M616.7,1048.8c17.8,0,35.1,0,52.6,0c0.5,2.1,0.9,4.2,1.6,7c-17.4,0.3-34.4,0.4-51.8,0.4   C618.3,1053.8,617.5,1051.5,616.7,1048.8z"
   id="path2000" />
	<path
   d="M678.9,1075.8c-0.5-2.7-0.9-4.4-1.2-6.1c3.7-1.4,44.9-1.8,53.4-0.6c0.4,1.5,0.9,3.2,1.5,5.4   C714.4,1075,696.8,1075.4,678.9,1075.8z"
   id="path2002" />
	<path
   d="M676.8,1065.7c-0.4-2.4-0.7-4.3-1.2-6.7c17.9,0,35.5,0,53.3,0c0.3,0.9,0.8,2.1,1,3.3c0.1,0.7,0,1.4-0.1,2.4   C712.2,1065,694.7,1065.4,676.8,1065.7z"
   id="path2004" />
	<path
   d="M674.8,1054.9c-0.2-0.9-0.5-1.6-0.6-2.3c-0.2-1.1-0.2-2.1-0.4-4c17.7,0,35.2,0,53.2,0c0.4,2,0.9,3.8,1.4,6.3   C710.3,1054.9,692.8,1054.9,674.8,1054.9z"
   id="path2006" />
	<path
   d="M605.5,596c-0.8,0.2-1.8,0.8-2.5,0.6c-6.4-2.6-12.3-5.8-15.5-12.5c-3.4-7.1-7-14.2-10.9-21.1c-7-12.6-16.6-23-27.5-32.7   c2.8-0.5,4.6,0.8,6.3,2.5c3.3,3.3,6.6,6.7,9.9,10c8.8,8.8,15.4,19,19.1,30.9C587.8,584.6,595.8,591.1,605.5,596   C605.5,596,605.5,596,605.5,596z"
   id="path2008" />
	<path
   d="M530.4,577.3c-0.7-1-1.5-1.8-2-2.9c-2.1-5-4.1-10-6-15c-2.5-6.7-6.5-12.4-11.7-17.2c-5.3-5-10.7-9.9-15.6-15.6   c2.6,1.4,5.4,2.5,7.7,4.3c12.6,9.5,21.5,21.5,25.1,37.1c0.7,3.1,1.6,6.2,2.3,9.4C530.2,577.4,530.4,577.3,530.4,577.3z"
   id="path2010" />
	<path
   d="M587.1,794.1c-1.1-6.6-1.2-13.3,0.9-19.7c6.4-19.5,28.2-25.4,43.6-16.7c4.6,2.6,8.7,6.3,13.2,9.6c1.7-1.3,3.6-2.9,5.6-4.5   c0.2,0.1,0.4,0.2,0.5,0.3c-1.5,2.5-2.8,5.2-4.4,7.6c-5.5,8.4-11.1,16.8-16.7,25.1c-0.8,1.2-1.5,2.6-2.7,3.3   c-7.1,4.4-14.3,8.7-21.9,12.6c5-8.3,10.4-16.2,16.8-23.3c6.4-7.2,14-13.3,21.5-20.2c-1.8-1.3-3.1-2.5-4.6-3.4   c-7.1-4.1-14.8-6.2-23.1-6.4c-10.3-0.2-19.5,7-22.9,15.9c-2.9,7.8-2.7,15.6,0.1,23.2c5.6,15.2,15.9,25.5,32.2,28.7   c13.5,2.7,26.2-5.6,29.4-19c1.8-7.7,1.5-15.4-0.7-22.9c-0.4-1.3-0.8-2.7-0.8-4.1c7.2,10.1,9.2,21,4.5,32.6   c-4.4,11-12.9,17.2-24.7,18.2c-14,1.2-25.1-4.9-34.4-14.9C592.7,810,589.1,802.4,587.1,794.1L587.1,794.1z"
   id="path2012" />
	<path
   d="M586.3,772.8c-6.3,0.9-10.1-3.4-14.6-5.3c-1.8-0.7-3.6-1.7-3.4-4.2c1.8-2,3.7-1,5.2,0.1   C577.7,766.3,583.5,766.9,586.3,772.8z"
   id="path2014" />
	<path
   d="M597.4,757c-6.6-3.1-10-8-13.5-13.2c2.3-1.5,3.9-1.5,5.2,0.2C591.9,747.9,597.4,750,597.4,757z"
   id="path2016" />
	<path
   d="M630.8,834c3.6,3.2,2.6,7.2,3,10.7c0.3,2.6,1.7,5.7-1.3,7.9c-2.3-0.4-2.6-2.1-2.8-4C628.3,838.2,628.3,837.6,630.8,834z"
   id="path2018" />
	<path
   d="M679.1,795.6c-5,3-9.9-0.1-14.6-0.2c-1.2,0-2.5-1.4-4-2.3c3.3-3.8,6.7-1.8,9.5-1.3C673,792.4,677.1,791.2,679.1,795.6z"
   id="path2020" />
	<path
   d="M587,794.1c-4.4,4.1-10.1,2.3-15.2,3c-1.2,0.2-2.5-0.6-4.2-1.1c2.8-4.6,6.8-3,10-3.4C580.9,792.1,584.3,791.4,587,794.1   C587.1,794.1,587,794.1,587,794.1z"
   id="path2022" />
	<path
   d="M613.5,733.5c4.6,4.4,2.6,9.5,3.8,13.8c0.3,1-0.7,2.4-1.2,3.6c-0.4,0-0.9,0.1-1.3,0.1c-0.7-1.2-1.9-2.5-1.9-3.7   C612.9,743,610.5,738.6,613.5,733.5z"
   id="path2024" />
	<path
   d="M656.7,845.6c-4.2-2.4-5.6-7.1-8.1-10.9c-0.6-0.9-0.2-2.5-0.3-4.6c5.9,2.3,7,7.5,9.7,11.2c0.6,0.9,0.2,2.4,0.3,3.7   C657.7,845.3,657.2,845.4,656.7,845.6z"
   id="path2026" />
	<path
   d="M660.7,817.5c1.5,0,2.9-0.4,3.7,0.1c3.2,2,6.2,4.2,9.1,6.5c0.6,0.5,0.8,2.2,0.4,2.8c-0.3,0.6-2.1,1-2.7,0.6   c-3.4-2.2-6.7-4.6-9.9-7.1C660.9,819.9,661,818.7,660.7,817.5z"
   id="path2028" />
	<path
   d="M642.6,742.3c0,2.1,0.4,3.5-0.1,4.4c-1.1,2.6-2.4,5.2-4,7.5c-0.6,0.9-2.3,1-3.4,1.5c-0.2-1.1-0.9-2.4-0.6-3.3   c1.3-2.9,2.9-5.7,4.6-8.4C639.5,743.3,640.8,743.1,642.6,742.3z"
   id="path2030" />
	<path
   d="M594,813.4c-0.8,4.8-4.9,6-7.5,8.4c-0.8,0.8-2.5,0.7-3.6,0.9c-1.3-2.8,0-4,1.5-5C587.2,816,589,812,594,813.4z"
   id="path2032" />
	<path
   d="M657.2,773.9c-1.1-0.7-2.1-1.1-2.4-1.7c-0.3-0.7,0-2,0.5-2.4c2.8-1.9,5.7-3.6,8.7-5.2c0.5-0.3,1.9,0.1,2.3,0.7   c0.4,0.5,0.4,2.1,0,2.4C663.4,769.8,660.3,771.8,657.2,773.9z"
   id="path2034" />
	<path
   d="M611.7,829.6c-0.4,1.6-0.5,3.1-1.2,4.4c-1.2,2.2-2.5,4.4-4.1,6.3c-0.5,0.6-1.9,0.6-2.9,0.6c-0.3,0-1-1.3-0.8-1.7   c1.4-3.8,3-7.6,6.7-9.8C609.8,829.1,610.5,829.5,611.7,829.6z"
   id="path2036" />
</g>
<g
   id="Stencil_supports">
	
		<rect
   x="1629.3"
   y="671"
   transform="matrix(0.9166 0.3998 -0.3998 0.9166 431.7831 -590.5704)"
   class="st0"
   width="4.5"
   height="137.5"
   id="rect2039" />
	<rect
   x="2387.1"
   y="832.8"
   class="st0"
   width="8"
   height="182"
   id="rect2041" />
	<rect
   x="1977.4"
   y="832.8"
   class="st0"
   width="8"
   height="182"
   id="rect2043" />
	<polygon
   class="st0"
   points="495.1,1235.4 479.5,1231.4 465,1196.6 476,1193.3  "
   id="polygon2045" />
	<polygon
   class="st0"
   points="526.7,1282.6 544.5,1277.1 513.9,1271.3 496.7,1282.6  "
   id="polygon2047" />
	<polygon
   class="st0"
   points="576.7,1204.2 565.6,1220.2 558.9,1210 576.7,1199.8  "
   id="polygon2049" />
	<polygon
   class="st0"
   points="411.8,1099.9 409.5,1114.4 419.2,1114.4 414.9,1096.3  "
   id="polygon2051" />
	<polygon
   class="st0"
   points="459.4,1179.6 455.2,1179.6 455.2,1187.7 458.2,1192.4 464,1188  "
   id="polygon2053" />
	<polygon
   class="st0"
   points="501,966.5 471.8,981 468.5,981 496.7,966.5  "
   id="polygon2055" />
	<path
   class="st0"
   d="M445.9,795.5l-13.8,5c0,0-4.8-3.5-13.3-3.5c-8.5,0-23.4,5.3-23.4,5.3v-3.5l31-7.3l11.3-0.5L445.9,795.5z"
   id="path2057" />
	<polygon
   class="st0"
   points="497.5,807.9 498.7,816.4 495.7,815.2 494.7,803.1  "
   id="polygon2059" />
	<polygon
   class="st0"
   points="490.6,801.6 491.7,811.4 487.9,805.6 485.8,795.3  "
   id="polygon2061" />
	<polygon
   class="st0"
   points="507.2,813.1 508.6,834 509.5,836 509.5,821.6  "
   id="polygon2063" />
	<polygon
   class="st0"
   points="512.1,859.5 517.2,876.3 519.4,876.3 512.1,855.6  "
   id="polygon2065" />
	<polygon
   class="st0"
   points="523.5,707.9 513.2,709.6 512.3,714.1 525.2,710.2  "
   id="polygon2067" />
	<polygon
   class="st0"
   points="594.1,1103.5 588.6,1096.1 584.5,1090.8 586.1,1090.8 596.1,1102.3  "
   id="polygon2069" />
	<polygon
   class="st0"
   points="557.5,1091.9 535.2,1107.4 533.2,1106.9 557.5,1089.9  "
   id="polygon2071" />
	<polygon
   class="st0"
   points="539.1,994 519.1,1010.2 517.5,1012.5 540.4,995.7  "
   id="polygon2073" />
	<polygon
   class="st0"
   points="480.6,1147.7 458.3,1163.2 456.4,1162.7 480.6,1145.7  "
   id="polygon2075" />
	<polygon
   class="st0"
   points="469.4,1053.6 454.9,1065.2 453.8,1067.6 470.3,1055.3  "
   id="polygon2077" />
	<polygon
   class="st0"
   points="493.9,1033 511,1124.4 508.4,1126.8 492.2,1035.5  "
   id="polygon2079" />
	<polygon
   class="st0"
   points="787.7,1097.5 742.7,1098.4 744.5,1097.2 787.7,1095.2  "
   id="polygon2081" />
	<polygon
   class="st0"
   points="747.2,918.5 753.4,949.9 752.4,951.6 745.4,916.1  "
   id="polygon2083" />
	<polygon
   class="st0"
   points="692.7,714.9 711.7,730.7 713.4,735.6 691.9,717.6  "
   id="polygon2085" />
	<polygon
   class="st0"
   points="650.4,762.8 637.3,773.9 626.2,772.9  "
   id="polygon2087" />
	<polygon
   class="st0"
   points="629.3,854.7 629.3,873.5 638.3,871.1 636.2,852.7  "
   id="polygon2089" />
	<polygon
   class="st0"
   points="610.2,716.6 611,732.5 616.3,731.5 615.2,714.1  "
   id="polygon2091" />
	<polygon
   class="st0"
   points="701,799.5 680.1,796.9 680.1,793.9 696.1,794.6  "
   id="polygon2093" />
	<polygon
   class="st0"
   points="567.6,799.5 564.6,792.7 548.5,793.9 550.8,799.7  "
   id="polygon2095" />
	<polygon
   class="st0"
   points="504.2,667.7 512.9,712.9 514.8,712.4 506.1,667.3  "
   id="polygon2097" />
	<polygon
   class="st0"
   points="514.6,664.9 523.3,710.2 525.2,709.7 516.5,664.6  "
   id="polygon2099" />
	<polygon
   class="st0"
   points="392.5,757.7 380.9,757.7 376.3,749.9 395.4,754.2  "
   id="polygon2101" />
	<path
   class="st0"
   d="M686.1,675.6l23,1.5l-4-3.8h-13.1l-4.8,0.8C687,674.1,683.9,674.4,686.1,675.6z"
   id="path2103" />
	<polygon
   class="st0"
   points="389.4,1175.1 365.7,1166.3 364,1162.8 389.4,1172.8  "
   id="polygon2105" />
	<polygon
   class="st0"
   points="417.8,1208 328.5,1193.3 332.1,1188.6 416.9,1202.6  "
   id="polygon2107" />
	<polygon
   class="st0"
   points="455.8,602.8 338.4,714.9 335.6,707.7 461.6,593.6  "
   id="polygon2109" />
	<polygon
   class="st0"
   points="713.4,603.3 525.2,594.6 519.4,588.6 713.4,596.6  "
   id="polygon2111" />
	<polygon
   class="st0"
   points="611.2,535.8 598.2,533.1 600.8,535.8 612.3,538.5  "
   id="polygon2113" />
	<polygon
   class="st0"
   points="535.2,522.1 527.4,519.3 524,515.6 535.2,519.3  "
   id="polygon2115" />
	<polygon
   class="st0"
   points="493.3,486.3 471.7,497.6 475.8,489.6 498,483.1  "
   id="polygon2117" />
	<polygon
   class="st0"
   points="498,443 498,447 495.2,447 495.1,441.2  "
   id="polygon2119" />
	<polygon
   class="st0"
   points="511,447 506.3,451.9 505.8,449.5 510.4,446.3  "
   id="polygon2121" />
	<polygon
   class="st0"
   points="491.1,415.2 486.2,405.9 485.5,406.7 490.5,417  "
   id="polygon2123" />
	<polygon
   class="st0"
   points="1124.3,774.2 1119.5,774.2 1128,751.1 1133,751.1  "
   id="polygon2125" />
	<polygon
   class="st0"
   points="1286.4,1033.2 1276.8,1033.2 1293.8,987.1 1303.9,987.1  "
   id="polygon2127" />
	<polygon
   class="st0"
   points="2583.7,1032.7 2574.1,1032.7 2591.1,986.6 2601.2,986.6  "
   id="polygon2129" />
</g>
</svg>
