<?xml version="1.0" encoding="UTF-8" standalone="no"?>
<svg
   fill="none"
   viewBox="0 0 24 24"
   stroke-width="1.5"
   stroke="currentColor"
   aria-hidden="true"
   version="1.1"
   id="svg9150"
   sodipodi:docname="digital.svg"
   inkscape:version="1.1.2 (0a00cf5339, 2022-02-04)"
   xmlns:inkscape="http://www.inkscape.org/namespaces/inkscape"
   xmlns:sodipodi="http://sodipodi.sourceforge.net/DTD/sodipodi-0.dtd"
   xmlns="http://www.w3.org/2000/svg"
   xmlns:svg="http://www.w3.org/2000/svg">
  <defs
     id="defs9154" />
  <sodipodi:namedview
     id="namedview9152"
     pagecolor="#ffffff"
     bordercolor="#666666"
     borderopacity="1.0"
     inkscape:pageshadow="2"
     inkscape:pageopacity="0.0"
     inkscape:pagecheckerboard="0"
     showgrid="false"
     inkscape:zoom="5.2959352"
     inkscape:cx="-41.35247"
     inkscape:cy="29.645378"
     inkscape:window-width="1890"
     inkscape:window-height="2083"
     inkscape:window-x="20"
     inkscape:window-y="20"
     inkscape:window-maximized="0"
     inkscape:current-layer="svg9150" />
  <g
     style="fill:none"
     id="g10102"
     transform="matrix(1.002348,0,0,1.002348,-0.31019798,0.75014754)">
    <path
       d="m 14.2639,15.9376 -1.6681,-1.6541 c -0.8049,-0.7983 -1.2074,-1.1974 -1.6692,-1.3433 -0.4062,-0.1283 -0.8428,-0.1236 -1.24612,0.0135 -0.4586,0.1559 -0.85234,0.5636 -1.6398,1.379 l -3.99659,3.9475 m 10.21981,-2.3426 0.3414,-0.3385 c 0.8059,-0.7992 1.2088,-1.1988 1.6712,-1.3447 0.4066,-0.1282 0.8435,-0.1232 1.2471,0.0144 0.4588,0.1564 0.8525,0.5652 1.6398,1.3827 L 20,16.4936 m -5.7361,-0.556 4.0111,4.019 m 0,0 c -0.3574,0.0435 -0.8207,0.0435 -1.475,0.0435 H 7.2 c -1.12011,0 -1.68016,0 -2.10798,-0.218 C 4.71569,19.5904 4.40973,19.2844 4.21799,18.9081 4.12796,18.7314 4.07512,18.5322 4.04409,18.2802 M 18.275,19.9566 c 0.2543,-0.0309 0.4551,-0.0838 0.633,-0.1745 0.3763,-0.1917 0.6823,-0.4977 0.874,-0.874 C 20,18.4803 20,17.9202 20,16.8001 V 16.4936 M 12.5,4 7.2,4.00011 c -1.12011,0 -1.68016,0 -2.10798,0.21798 C 4.71569,4.40984 4.40973,4.7158 4.21799,5.09213 4,5.51995 4,6.08 4,7.20011 v 9.59999 c 0,0.6575 0,1.1221 0.04409,1.4801 M 20,11.5 v 4.9936 M 14,10.0002 16.0249,9.59516 C 16.2015,9.55984 16.2898,9.54219 16.3721,9.5099 16.4452,9.48124 16.5146,9.44407 16.579,9.39917 16.6515,9.34859 16.7152,9.28492 16.8425,9.1576 L 21,5.00015 c 0.5522,-0.55228 0.5522,-1.44771 0,-2 -0.5523,-0.55228 -1.4478,-0.55228 -2,0 L 14.8425,7.1576 c -0.1273,0.12732 -0.191,0.19099 -0.2416,0.26352 -0.0449,0.06438 -0.082,0.13382 -0.1107,0.20689 -0.0323,0.08232 -0.0499,0.17061 -0.0853,0.34717 z"
       stroke="#000000"
       stroke-width="2"
       stroke-linecap="round"
       stroke-linejoin="round"
       id="path10093" />
  </g>
</svg>
