<?xml version="1.0" encoding="UTF-8" standalone="no"?>
<svg
   fill="none"
   viewBox="0 0 24 24"
   stroke-width="1.5"
   stroke="currentColor"
   aria-hidden="true"
   version="1.1"
   id="svg9150"
   sodipodi:docname="fabric.svg"
   inkscape:version="1.1.2 (0a00cf5339, 2022-02-04)"
   xmlns:inkscape="http://www.inkscape.org/namespaces/inkscape"
   xmlns:sodipodi="http://sodipodi.sourceforge.net/DTD/sodipodi-0.dtd"
   xmlns="http://www.w3.org/2000/svg"
   xmlns:svg="http://www.w3.org/2000/svg">
  <defs
     id="defs9154" />
  <sodipodi:namedview
     id="namedview9152"
     pagecolor="#ffffff"
     bordercolor="#666666"
     borderopacity="1.0"
     inkscape:pageshadow="2"
     inkscape:pageopacity="0.0"
     inkscape:pagecheckerboard="0"
     showgrid="false"
     inkscape:zoom="21.183741"
     inkscape:cx="11.990328"
     inkscape:cy="11.046208"
     inkscape:window-width="1890"
     inkscape:window-height="2083"
     inkscape:window-x="20"
     inkscape:window-y="20"
     inkscape:window-maximized="0"
     inkscape:current-layer="svg9150" />
  <g
     style="fill:#ffffff;stroke:#000000;stroke-width:24.7992;stroke-miterlimit:4;stroke-dasharray:none;stroke-opacity:1"
     id="g11739"
     transform="matrix(0.04032382,0,0,0.04032382,1.757668,1.0565699)">
    <g
       transform="translate(1,1)"
       id="g11727"
       style="fill:#ffffff;stroke:#000000;stroke-width:24.7992;stroke-miterlimit:4;stroke-dasharray:none;stroke-opacity:1">
	<g
   id="g11725"
   style="fill:#ffffff;stroke:#000000;stroke-width:24.7992;stroke-miterlimit:4;stroke-dasharray:none;stroke-opacity:1">
		<g
   id="g11723"
   style="fill:#ffffff;stroke:#000000;stroke-width:24.7992;stroke-miterlimit:4;stroke-dasharray:none;stroke-opacity:1">
			<path
   d="M 391.533,-1 C 338.086,-1 293.868,40.5 289.494,92.867 H 16.067 V 511 h 375.467 c 56.32,0 102.4,-46.08 102.4,-102.4 V 101.4 C 493.933,45.08 447.853,-1 391.533,-1 Z m -358.4,175.424 104.821,-64.49 h 59.894 L 33.133,206.02 Z m 256,103.77 -31.129,-7.781 31.129,-17.787 z m 0,-45.224 -55.058,31.461 -44.863,-11.215 99.922,-59.972 v 39.726 z m 0,-59.629 -123.334,74.023 -44.986,-11.245 168.32,-102.498 z M 275.388,292.349 225.755,321.848 33.133,265.667 V 231.792 Z M 94.241,400.013 33.133,377.098 v -42.25 l 111.906,34.973 z M 33.133,316.967 v -33.522 l 172.557,50.329 -42.192,25.077 0.325,-1.04 z m 0,78.358 42.305,15.864 -42.305,25.144 z m 0,60.86 256,-152.153 v 39.999 l -256,148.51 z m 256,-92.423 v 39.906 L 133.246,493.933 H 64.745 Z m 0,-250.123 L 97.549,230.303 47.027,217.674 231.72,109.933 h 57.414 v 3.706 z m -183.748,-3.706 -72.252,44.452 v -44.452 z m 61.92,384 122.827,-71.121 c 4.156,29.594 21.081,55.232 44.984,71.121 z m 224.228,0 c -46.933,0 -85.333,-38.4 -85.333,-85.333 0,-46.933 38.4,-85.333 85.333,-85.333 46.933,0 85.333,38.4 85.333,85.333 0,46.933 -38.399,85.333 -85.333,85.333 z m 0,-187.733 c -35.513,0 -66.949,18.325 -85.333,45.983 V 101.4 c 0,-46.933 38.4,-85.333 85.333,-85.333 46.933,0 85.333,38.4 85.333,85.333 V 352.183 C 458.482,324.525 427.046,306.2 391.533,306.2 Z"
   id="path11719"
   style="fill:#ffffff;stroke:#f9f9f9;stroke-width:24.7992;stroke-miterlimit:4;stroke-dasharray:none;stroke-opacity:1" />

			<path
   d="m 391.533,348.867 c -33.28,0 -59.733,26.453 -59.733,59.733 0,33.28 26.453,59.733 59.733,59.733 33.28,0 59.733,-26.453 59.733,-59.733 0,-33.28 -26.453,-59.733 -59.733,-59.733 z m 0,102.4 c -23.893,0 -42.667,-18.773 -42.667,-42.667 0,-23.893 18.773,-42.667 42.667,-42.667 23.894,0 42.667,18.774 42.667,42.667 0,23.893 -18.773,42.667 -42.667,42.667 z"
   id="path11721"
   style="fill:#ffffff;stroke:#000000;stroke-width:24.7992;stroke-miterlimit:4;stroke-dasharray:none;stroke-opacity:1" />

		</g>

	</g>

</g>
  </g>
</svg>
