<?xml version="1.0" encoding="UTF-8" standalone="no"?>
<svg
   fill="none"
   viewBox="0 0 24 24"
   stroke-width="1.5"
   stroke="currentColor"
   aria-hidden="true"
   version="1.1"
   id="svg9150"
   sodipodi:docname="laser.svg"
   inkscape:version="1.1.2 (0a00cf5339, 2022-02-04)"
   xmlns:inkscape="http://www.inkscape.org/namespaces/inkscape"
   xmlns:sodipodi="http://sodipodi.sourceforge.net/DTD/sodipodi-0.dtd"
   xmlns="http://www.w3.org/2000/svg"
   xmlns:svg="http://www.w3.org/2000/svg">
  <defs
     id="defs9154" />
  <sodipodi:namedview
     id="namedview9152"
     pagecolor="#ffffff"
     bordercolor="#666666"
     borderopacity="1.0"
     inkscape:pageshadow="2"
     inkscape:pageopacity="0.0"
     inkscape:pagecheckerboard="0"
     showgrid="false"
     inkscape:zoom="21.183741"
     inkscape:cx="22.847712"
     inkscape:cy="19.637703"
     inkscape:window-width="1890"
     inkscape:window-height="1709"
     inkscape:window-x="20"
     inkscape:window-y="394"
     inkscape:window-maximized="0"
     inkscape:current-layer="svg9150" />
  <path
     fill="#000000"
     d="M 3.1484517,1.0196122 4.4791226,3.4589701 4.8539633,5.2466509 3.224798,4.9915274 1.4428853,4.3470423 V 5.2639464 L 3.2854643,5.9301169 4.0840384,6.7100083 2.1104431,8.712481 4.5093873,8.304528 5.3815879,10.924088 4.9808268,15.667087 4.3594053,17.15213 3.8332045,16.830581 1.4428853,13.869348 v 1.372481 l 1.7329652,2.14812 0.46715,0.837509 -2.2130297,1.247178 2.2764158,0.295528 -1.0149358,1.959157 1.8697954,-0.840457 0.7699705,1.987988 0.4036634,-1.928937 1.9807964,0.712206 -0.849137,-1.65075 2.9511751,0.0606 -2.5834899,-1.444629 0.6544517,-0.46558 3.4110326,-0.896706 1.698274,-0.0073 -2.123531,3.356226 3.563825,-1.914554 1.528131,4.238484 1.052393,-3.8666 2.593638,2.499987 -0.609885,-3.808982 2.462385,-0.118193 -2.119196,-1.748745 3.755553,-2.47248 -4.005,0.210457 L 18.441799,9.5023938 16.603646,13.20462 14.546367,10.213131 13.528565,5.6704391 17.432622,4.8068177 16.697343,6.0106798 18.459094,5.4094652 18.92911,7.5200823 20.072297,5.840491 21.891721,6.6911978 21.227166,5.0058384 23.007646,4.5228259 20.99788,3.6462809 21.939281,2.0835501 20.078111,2.6314364 18.725745,1.1421496 18.542596,2.9816802 16.411873,2.5535659 17.558016,3.8971604 13.341127,4.8299817 12.487654,1.0195757 H 11.603826 L 12.499136,5.0159418 11.8648,5.1572532 9.1270928,5.2495168 10.649502,1.1868074 8.0386126,3.9188368 7.0135278,1.271879 6.4642998,4.3153173 5.3815422,3.3146742 4.1302204,1.01953 Z m 9.5381233,4.8369239 1.058215,4.7258409 -0.113949,3.222106 -4.3134985,-0.772736 3.0693685,2.456617 -2.163946,1.164872 -2.7608248,0.726609 -1.2023744,-0.0115 L 5.835732,15.792609 6.2884432,10.435334 7.0035156,8.9186936 8.8185497,10.461309 8.5850204,8.3737645 11.289606,9.1493571 9.3086263,7.2276207 11.897921,6.0310054 12.686529,5.8566182 Z"
     id="path9791"
     style="fill:none;stroke-width:1;stroke-miterlimit:4;stroke-dasharray:none" />
  <g
     style="fill:none"
     id="g9955"
     transform="matrix(1.6129032,0,0,1.6129032,-245.59767,-349.82747)">
    <path
       d="M 7,16 V 3.6 C 7,3.26863 7.26863,3 7.6,3 h 8.8 C 16.7314,3 17,3.26863 17,3.6 V 16 M 7,16 H 9 M 7,16 H 5 m 12,0 h -2 m 2,0 h 2 m -7,0 v 6 m 0,-6 H 9 m 3,0 h 3 m -6,0 v 6 m 6,-6 v 6"
       stroke="#000000"
       stroke-width="1.5"
       stroke-linecap="round"
       stroke-linejoin="round"
       id="path9946" />
  </g>
</svg>
