<?xml version="1.0" encoding="UTF-8" standalone="no"?>
<svg
   fill="none"
   viewBox="0 0 24 24"
   stroke-width="1.5"
   stroke="currentColor"
   aria-hidden="true"
   version="1.1"
   id="svg9150"
   sodipodi:docname="metal.svg"
   inkscape:version="1.1.2 (0a00cf5339, 2022-02-04)"
   xmlns:inkscape="http://www.inkscape.org/namespaces/inkscape"
   xmlns:sodipodi="http://sodipodi.sourceforge.net/DTD/sodipodi-0.dtd"
   xmlns="http://www.w3.org/2000/svg"
   xmlns:svg="http://www.w3.org/2000/svg">
  <defs
     id="defs9154" />
  <sodipodi:namedview
     id="namedview9152"
     pagecolor="#ffffff"
     bordercolor="#666666"
     borderopacity="1.0"
     inkscape:pageshadow="2"
     inkscape:pageopacity="0.0"
     inkscape:pagecheckerboard="0"
     showgrid="false"
     inkscape:zoom="21.183741"
     inkscape:cx="7.6945806"
     inkscape:cy="24.358304"
     inkscape:window-width="1890"
     inkscape:window-height="1709"
     inkscape:window-x="20"
     inkscape:window-y="394"
     inkscape:window-maximized="0"
     inkscape:current-layer="svg9150" />
  <g
     style="fill:#ffffff"
     id="g9319"
     transform="matrix(0.07140808,0,0,0.07140808,1.1908443,1.7616128)">
    <g
       id="g9296"
       style="fill:#ffffff">
	<path
   d="m 264.124,72.473 h -6.585 V 32.959 c 0,-3.819 -2.174,-7.303 -5.603,-8.984 C 219.92,8.291 184.152,0 148.5,0 112.848,0 77.08,8.291 45.064,23.975 c -3.429,1.68 -5.603,5.165 -5.603,8.984 V 72.473 H 32.876 C 18.304,72.473 6.45,84.328 6.45,98.899 v 33.178 c 0,14.572 11.855,26.426 26.426,26.426 h 6.585 v 105.538 c 0,3.819 2.174,7.303 5.603,8.984 C 77.08,288.71 112.848,297 148.5,297 c 35.652,0 71.42,-8.29 103.436,-23.974 3.429,-1.68 5.603,-5.165 5.603,-8.984 V 158.504 h 6.585 c 14.572,0 26.426,-11.855 26.426,-26.426 V 98.9 C 290.551,84.328 278.696,72.473 264.124,72.473 Z M 59.468,75.974 h 178.064 v 65.189 H 59.468 Z m 0,-36.68 c 56.917,-25.929 121.147,-25.929 178.064,0 V 55.967 H 59.468 Z M 26.456,132.078 V 98.9 c 0,-3.539 2.88,-6.419 6.419,-6.419 h 6.585 v 46.016 h -6.585 c -3.539,0 -6.419,-2.88 -6.419,-6.419 z m 211.076,125.629 c -56.917,25.929 -121.147,25.929 -178.064,0 v -96.536 h 178.064 z m 33.012,-125.629 c 0,3.539 -2.88,6.419 -6.419,6.419 H 257.54 V 92.48 h 6.585 c 3.539,0 6.419,2.88 6.419,6.419 z"
   id="path9266"
   style="fill:#ffffff" />

	<path
   d="m 143.548,88.029 -33.012,33.012 c -2.734,2.735 -2.734,7.169 0,9.904 1.368,1.367 3.16,2.051 4.952,2.051 1.792,0 3.584,-0.684 4.952,-2.051 l 33.012,-33.012 c 2.734,-2.735 2.734,-7.169 0,-9.904 -2.735,-2.734 -7.169,-2.734 -9.904,0 z"
   id="path9268"
   style="fill:#ffffff" />

	<path
   d="m 120.44,88.029 c -2.735,-2.733 -7.169,-2.733 -9.904,0 L 77.524,121.04 c -2.734,2.735 -2.734,7.169 0,9.904 1.368,1.367 3.16,2.051 4.952,2.051 1.792,0 3.584,-0.684 4.952,-2.051 L 120.44,97.932 c 2.735,-2.735 2.735,-7.168 0,-9.903 z"
   id="path9270"
   style="fill:#ffffff" />

	<path
   d="m 214.521,188.515 c 1.84,0 3.651,-0.75 4.952,-2.051 1.3,-1.301 2.051,-3.111 2.051,-4.952 0,-1.84 -0.75,-3.652 -2.051,-4.952 -1.301,-1.3 -3.102,-2.051 -4.952,-2.051 -1.841,0 -3.642,0.75 -4.952,2.051 -1.3,1.3 -2.051,3.111 -2.051,4.952 0,1.841 0.75,3.651 2.051,4.952 1.31,1.301 3.111,2.051 4.952,2.051 z"
   id="path9272"
   style="fill:#ffffff" />

	<path
   d="m 108.882,188.515 c 3.872,0 7.003,-3.131 7.003,-7.003 0,-3.872 -3.131,-7.003 -7.003,-7.003 -3.861,0 -7.003,3.131 -7.003,7.003 0,3.872 3.143,7.003 7.003,7.003 z"
   id="path9274"
   style="fill:#ffffff" />

	<path
   d="m 135.292,188.515 c 3.872,0 7.003,-3.131 7.003,-7.003 0,-3.872 -3.131,-7.003 -7.003,-7.003 -3.862,0 -7.003,3.131 -7.003,7.003 0,3.872 3.141,7.003 7.003,7.003 z"
   id="path9276"
   style="fill:#ffffff" />

	<path
   d="m 161.702,188.515 c 3.871,0 7.003,-3.131 7.003,-7.003 0,-3.872 -3.132,-7.003 -7.003,-7.003 -3.862,0 -7.003,3.131 -7.003,7.003 0,3.872 3.141,7.003 7.003,7.003 z"
   id="path9278"
   style="fill:#ffffff" />

	<path
   d="m 188.111,188.515 c 3.872,0 7.003,-3.131 7.003,-7.003 0,-3.872 -3.131,-7.003 -7.003,-7.003 -3.862,0 -7.003,3.131 -7.003,7.003 0,3.872 3.141,7.003 7.003,7.003 z"
   id="path9280"
   style="fill:#ffffff" />

	<path
   d="m 82.473,188.515 c 1.841,0 3.651,-0.75 4.952,-2.051 1.31,-1.301 2.051,-3.111 2.051,-4.952 0,-1.84 -0.741,-3.652 -2.051,-4.952 -1.301,-1.3 -3.111,-2.051 -4.952,-2.051 -1.84,0 -3.642,0.75 -4.952,2.051 -1.3,1.3 -2.051,3.111 -2.051,4.952 0,1.841 0.75,3.651 2.051,4.952 1.31,1.301 3.112,2.051 4.952,2.051 z"
   id="path9282"
   style="fill:#ffffff" />

	<path
   d="m 214.521,37.461 c -1.841,0 -3.642,0.75 -4.952,2.051 -1.3,1.3 -2.051,3.111 -2.051,4.952 0,1.841 0.75,3.651 2.051,4.952 1.31,1.3 3.111,2.051 4.952,2.051 1.85,0 3.651,-0.75 4.952,-2.051 1.31,-1.301 2.051,-3.111 2.051,-4.952 0,-1.84 -0.74,-3.652 -2.051,-4.952 -1.302,-1.301 -3.102,-2.051 -4.952,-2.051 z"
   id="path9284"
   style="fill:#ffffff" />

	<path
   d="m 188.111,37.461 c -3.862,0 -7.003,3.131 -7.003,7.003 0,3.872 3.141,7.003 7.003,7.003 3.872,0 7.003,-3.131 7.003,-7.003 0,-3.872 -3.132,-7.003 -7.003,-7.003 z"
   id="path9286"
   style="fill:#ffffff" />

	<path
   d="m 161.702,37.461 c -3.862,0 -7.003,3.131 -7.003,7.003 0,3.872 3.141,7.003 7.003,7.003 3.871,0 7.003,-3.131 7.003,-7.003 0,-3.872 -3.132,-7.003 -7.003,-7.003 z"
   id="path9288"
   style="fill:#ffffff" />

	<path
   d="m 135.292,37.461 c -3.862,0 -7.003,3.131 -7.003,7.003 0,3.872 3.141,7.003 7.003,7.003 3.872,0 7.003,-3.131 7.003,-7.003 0,-3.872 -3.131,-7.003 -7.003,-7.003 z"
   id="path9290"
   style="fill:#ffffff" />

	<path
   d="m 108.882,37.461 c -3.861,0 -7.003,3.131 -7.003,7.003 0,3.872 3.142,7.003 7.003,7.003 3.872,0 7.003,-3.131 7.003,-7.003 0,-3.872 -3.131,-7.003 -7.003,-7.003 z"
   id="path9292"
   style="fill:#ffffff" />

	<path
   d="m 82.473,37.461 c -1.84,0 -3.652,0.75 -4.952,2.051 -1.3,1.301 -2.051,3.111 -2.051,4.952 0,1.841 0.75,3.651 2.051,4.952 1.3,1.3 3.111,2.051 4.952,2.051 1.85,0 3.651,-0.75 4.952,-2.051 1.31,-1.301 2.051,-3.111 2.051,-4.952 0,-1.84 -0.741,-3.652 -2.051,-4.952 -1.301,-1.301 -3.101,-2.051 -4.952,-2.051 z"
   id="path9294"
   style="fill:#ffffff" />

</g>
  </g>
</svg>
