<?xml version="1.0" encoding="UTF-8" standalone="no"?>
<svg
   fill="none"
   viewBox="0 0 24 24"
   stroke-width="1.5"
   stroke="currentColor"
   aria-hidden="true"
   version="1.1"
   id="svg7674"
   sodipodi:docname="pottery.svg"
   inkscape:version="1.1.2 (0a00cf5339, 2022-02-04)"
   xmlns:inkscape="http://www.inkscape.org/namespaces/inkscape"
   xmlns:sodipodi="http://sodipodi.sourceforge.net/DTD/sodipodi-0.dtd"
   xmlns="http://www.w3.org/2000/svg"
   xmlns:svg="http://www.w3.org/2000/svg">
  <defs
     id="defs7678" />
  <sodipodi:namedview
     id="namedview7676"
     pagecolor="#ffffff"
     bordercolor="#666666"
     borderopacity="1.0"
     inkscape:pageshadow="2"
     inkscape:pageopacity="0.0"
     inkscape:pagecheckerboard="0"
     showgrid="false"
     inkscape:zoom="14.979167"
     inkscape:cx="11.082058"
     inkscape:cy="19.694019"
     inkscape:window-width="1890"
     inkscape:window-height="2083"
     inkscape:window-x="20"
     inkscape:window-y="20"
     inkscape:window-maximized="0"
     inkscape:current-layer="svg7674" />
  <path
     d="M 17.294252,7.0516757 C 16.632304,6.4566808 15.957299,6.2501019 15.625768,6.1806661 V 3.4989672 l 0.4872,-0.4660466 c 0.287604,-0.043014 0.509064,-0.2908914 0.509064,-0.590288 V 2.1912651 c 0,-0.3295065 -0.268068,-0.5975747 -0.597627,-0.5975747 H 8.4943916 c -0.3295586,0 -0.5976267,0.2680682 -0.5976267,0.5976267 v 0.2513676 c 0,0.2983837 0.2200429,0.5456528 0.5062293,0.589831 L 8.8906483,3.499018 V 6.1806661 C 8.5591186,6.2501057 7.8841132,6.4566808 7.2221645,7.0516757 6.4012584,7.7895347 5.4436091,9.2943536 5.5434582,12.273222 c 0.098124,2.932156 1.0154921,5.344878 1.7677759,6.852481 0.5990938,1.200716 1.1804236,2.021218 1.4605367,2.388528 -0.106679,0.102477 -0.1735332,0.246055 -0.1735332,0.405317 0,0.310175 0.2523309,0.562504 0.5625057,0.562504 h 6.1948817 c 0.310175,0 0.562503,-0.252329 0.562503,-0.562504 0,-0.159262 -0.0668,-0.302887 -0.173533,-0.405368 0.280164,-0.367259 0.861443,-1.187812 1.460537,-2.388477 C 17.957416,17.6181 18.874781,15.20543 18.973011,12.273222 19.072861,9.2943536 18.11521,7.7895347 17.294252,7.0516757 Z M 8.4943916,2.5847904 c -0.078388,0 -0.1421565,-0.063766 -0.1421565,-0.1421578 V 2.1912651 c 0,-0.078388 0.063766,-0.1421565 0.1421565,-0.1421565 h 7.5300654 c 0.07839,0 0.142156,0.063766 0.142156,0.1421565 v 0.2513675 c 0,0.078388 -0.06377,0.1421578 -0.142156,0.1421578 z M 9.3461184,5.0103646 V 4.3831839 H 15.17035 V 5.0103646 Z M 15.17035,5.4658347 v 0.680571 H 9.3461184 V 5.4658347 Z M 9.3461184,3.9277163 V 3.4016997 c 0,-0.062192 -0.02541,-0.1216051 -0.070341,-0.1645775 L 9.0700072,3.0402593 H 15.44642 l -0.205721,0.1968629 c -0.04494,0.042963 -0.07034,0.102427 -0.07034,0.1645775 V 3.9277163 Z M 7.5056182,7.4093693 C 8.2617972,6.7186782 9.0504179,6.6111349 9.1301739,6.6018758 h 6.2558151 c 0.08244,0.00952 0.869794,0.1178609 1.624759,0.8074935 0.464578,0.4243956 0.825564,0.9849772 1.078449,1.6664086 -0.341653,0.1024778 -0.562707,0.3151351 -0.761898,0.5078489 -0.255113,0.2469658 -0.456582,0.4419562 -0.887153,0.4419562 -0.43067,0 -0.63214,-0.1950412 -0.887253,-0.4419562 -0.276114,-0.2672596 -0.589023,-0.5701961 -1.203956,-0.5701961 -0.614933,0 -0.927893,0.3029365 -1.203956,0.5702468 -0.255063,0.2469151 -0.45648,0.4419055 -0.887052,0.4419055 -0.430568,0 -0.631986,-0.1950412 -0.88705,-0.4419055 -0.276063,-0.2672596 -0.589022,-0.5702468 -1.203956,-0.5702468 -0.6148819,0 -0.9277894,0.302887 -1.2038549,0.5701961 -0.255061,0.2469658 -0.4564817,0.4419562 -0.8870508,0.4419562 -0.4305691,0 -0.6319886,-0.1950412 -0.8870014,-0.4419562 C 6.9899268,9.3908609 6.7688215,9.1784106 6.42727,9.0760318 6.6800058,8.3944975 7.04104,7.8338169 7.5056182,7.4093693 Z M 6.285974,9.5087789 c 0.2430173,0.07029 0.4047098,0.226318 0.5861376,0.4020253 0.2760655,0.2672598 0.5889718,0.5702488 1.2038549,0.5702488 0.6148831,0 0.9277919,-0.302888 1.2038549,-0.570198 0.2550635,-0.2469633 0.4565325,-0.4419541 0.8870526,-0.4419541 0.430621,0 0.63209,0.1950911 0.887151,0.4419541 0.276065,0.26726 0.588973,0.570198 1.203855,0.570198 0.614883,0 0.927789,-0.302888 1.203855,-0.570198 0.255061,-0.2469151 0.456532,-0.4419541 0.887152,-0.4419541 0.430621,0 0.63209,0.195039 0.887151,0.4419541 0.276116,0.26726 0.589073,0.570198 1.204059,0.570198 0.614884,0 0.927841,-0.302888 1.203954,-0.570198 0.181431,-0.1756579 0.343932,-0.3306691 0.586696,-0.4010138 0.140183,0.4914008 0.23062,1.0363948 0.270347,1.6298198 -0.476118,0.06578 -0.749095,0.320902 -0.992567,0.550763 -0.252331,0.238209 -0.470247,0.44398 -0.921011,0.44398 -0.451318,0 -0.671714,-0.206073 -0.926929,-0.44469 -0.284468,-0.265993 -0.606887,-0.567463 -1.238065,-0.567463 -0.631078,0 -0.953449,0.30147 -1.237864,0.567463 -0.255164,0.238617 -0.475509,0.44469 -0.926829,0.44469 -0.451319,0 -0.671715,-0.206073 -0.926878,-0.44469 -0.284416,-0.265993 -0.606787,-0.567463 -1.237864,-0.567463 -0.6310776,0 -0.9534485,0.30147 -1.2378643,0.567463 -0.2551638,0.238617 -0.4755087,0.44469 -0.9267765,0.44469 -0.4506102,0 -0.6684764,-0.20572 -0.920707,-0.44388 C 6.7642663,11.460563 6.4913903,11.205551 6.0153231,11.139812 6.0551008,10.545931 6.1456389,10.000533 6.285974,9.5087789 Z M 15.355676,22.026584 H 9.1607928 c -0.059007,0 -0.1070343,-0.04803 -0.1070343,-0.107034 0,-0.05901 0.048028,-0.106984 0.1070343,-0.106984 h 6.1948832 c 0.05901,0 0.107034,0.04798 0.107034,0.106984 0,0.05901 -0.04803,0.107034 -0.107034,0.107034 z m -0.06629,-0.669489 H 9.2271939 C 9.0731955,21.16185 8.6621612,20.6162 8.1822976,19.779249 h 8.1557794 c -0.480014,0.83452 -0.893933,1.382145 -1.048693,1.577846 z M 16.590458,19.32378 H 7.9306725 C 7.867617,19.205361 7.8039524,19.082383 7.7401354,18.955052 h 9.0410056 c -0.06382,0.127177 -0.12748,0.250306 -0.19069,0.368728 z m 0.41053,-0.824196 H 7.5200976 c -0.5882636,-1.265445 -1.15593,-2.89157 -1.4019833,-4.783235 0.2808721,0.06432 0.4676142,0.230064 0.6748518,0.417413 0.2928156,0.26478 0.6247527,0.564883 1.2405459,0.564883 0.6194891,0 0.9351788,-0.302482 1.2136216,-0.569387 0.2581503,-0.24737 0.4619991,-0.442767 0.8985894,-0.442767 0.436543,0 0.64044,0.195397 0.898591,0.442767 0.278493,0.266853 0.594083,0.569387 1.213671,0.569387 0.61959,0 0.93523,-0.302482 1.213725,-0.569437 0.258098,-0.24737 0.461947,-0.442717 0.898438,-0.442717 0.436592,0 0.640489,0.195347 0.89869,0.442767 0.278545,0.266853 0.594184,0.569387 1.213875,0.569387 0.615744,0 0.947932,-0.300103 1.241052,-0.564782 0.207492,-0.187399 0.393221,-0.354456 0.674245,-0.418729 -0.254252,1.951383 -0.845956,3.595981 -1.397024,4.78445 z m 1.516914,-6.241595 c -0.0113,0.33578 -0.0339,0.664275 -0.06573,0.985482 -0.48639,0.05855 -0.775412,0.319132 -1.033761,0.552384 -0.265743,0.240032 -0.495248,0.447372 -0.935738,0.447372 -0.436694,0 -0.640591,-0.195396 -0.898792,-0.442768 -0.278543,-0.266906 -0.594185,-0.569386 -1.213773,-0.569386 -0.619489,0 -0.935179,0.302532 -1.213573,0.569386 -0.258148,0.247372 -0.461997,0.442768 -0.89859,0.442768 -0.436539,0 -0.640439,-0.195396 -0.898587,-0.442768 -0.278493,-0.266854 -0.594084,-0.569386 -1.213672,-0.569386 -0.6195921,0 -0.9352298,0.302532 -1.2137246,0.569439 -0.2580983,0.247368 -0.461947,0.442715 -0.8984384,0.442715 -0.4403878,0 -0.6695895,-0.207288 -0.9350278,-0.447271 -0.2582045,-0.233504 -0.5475805,-0.493577 -1.0344768,-0.551929 -0.031782,-0.321712 -0.054095,-0.650461 -0.06534,-0.985989 -0.00749,-0.225811 -0.0085,-0.445802 -0.00368,-0.660328 0.308351,0.05592 0.4930699,0.228645 0.7000536,0.423991 0.2820373,0.266399 0.6017771,0.568274 1.233461,0.568274 0.6310773,0 0.9534494,-0.30147 1.237864,-0.567464 0.2551638,-0.238616 0.47551,-0.444691 0.926779,-0.444691 0.451269,0 0.671614,0.206026 0.926778,0.44464 0.284416,0.266045 0.606837,0.567515 1.237962,0.567515 0.63108,0 0.953451,-0.30147 1.237864,-0.567464 0.255164,-0.238616 0.475511,-0.444691 0.926779,-0.444691 0.45142,0 0.671765,0.206075 0.92698,0.444691 0.284465,0.265994 0.606887,0.567464 1.237964,0.567464 0.631736,0 0.951577,-0.301875 1.233663,-0.568223 0.20724,-0.1956 0.391451,-0.369081 0.70031,-0.424902 0.0049,0.214727 0.0039,0.435023 -0.0036,0.661139 z"
     id="path7812"
     style="fill:#000000;stroke-width:1.09154;stroke-miterlimit:4;stroke-dasharray:none" />
</svg>
