<?xml version="1.0" encoding="UTF-8" standalone="no"?>
<svg
   fill="none"
   viewBox="0 0 24 24"
   stroke-width="1.5"
   stroke="currentColor"
   aria-hidden="true"
   version="1.1"
   id="svg7674"
   sodipodi:docname="woodworking.svg"
   inkscape:version="1.1.2 (0a00cf5339, 2022-02-04)"
   xmlns:inkscape="http://www.inkscape.org/namespaces/inkscape"
   xmlns:sodipodi="http://sodipodi.sourceforge.net/DTD/sodipodi-0.dtd"
   xmlns="http://www.w3.org/2000/svg"
   xmlns:svg="http://www.w3.org/2000/svg">
  <defs
     id="defs7678" />
  <sodipodi:namedview
     id="namedview7676"
     pagecolor="#ffffff"
     bordercolor="#666666"
     borderopacity="1.0"
     inkscape:pageshadow="2"
     inkscape:pageopacity="0.0"
     inkscape:pagecheckerboard="0"
     showgrid="false"
     inkscape:zoom="42.367481"
     inkscape:cx="12.202755"
     inkscape:cy="19.802924"
     inkscape:window-width="1890"
     inkscape:window-height="2083"
     inkscape:window-x="20"
     inkscape:window-y="20"
     inkscape:window-maximized="0"
     inkscape:current-layer="svg7674" />
  <g
     style="fill:none"
     id="g9005"
     transform="matrix(0.69665626,0,0,0.69665626,0.79414549,-0.99343635)">
    <path
       d="M 31,22.9 H 29.1 C 29.4,20.8 29.4,18.8 29,16.8 28.9,16.5 28.7,16.2 28.4,16.1 28.1,16 27.8,16 27.5,16.1 l -0.6,0.4 c -0.7,-1.9 -1.8,-3.7 -3.2,-5.2 -0.2,-0.2 -0.5,-0.4 -0.8,-0.3 -0.3,0 -0.6,0.2 -0.8,0.5 l -0.4,0.6 C 20.1,10.8 18.3,9.8 16.3,9.1 16,9 15.7,9.1 15.4,9.3 15.2,9.5 15,9.8 15,10.1 v 0.7 c -2.1,-0.3 -4.1,-0.3 -6.1,0.1 -0.3,0.1 -0.6,0.3 -0.7,0.6 -0.1,0.3 -0.1,0.6 0,0.9 L 8.6,13 C 6.7,13.7 4.9,14.8 3.4,16.2 3.1,16.5 3,16.8 3,17.1 c 0,0.3 0.2,0.6 0.5,0.8 l 0.6,0.4 c -1.2,1.4 -2,3 -2.7,4.7 H 1 c -0.6,0 -1,0.4 -1,1 0,0.6 0.4,1 1,1 H 2.2 8 24.2 28 31 c 0.6,0 1,-0.4 1,-1 0,-0.6 -0.4,-1.1 -1,-1.1 z m -12,0 C 19,21.3 17.7,20 16,20 c -1.7,0 -3,1.3 -3,2.9 H 7 c 0.5,-4.5 4.4,-8.1 9,-8.1 4.6,0 8.5,3.5 9,8.1 z"
       id="path8997"
       style="fill:none" />
  </g>
</svg>
