<?xml version="1.0" encoding="UTF-8" standalone="no"?>
<!-- Generator: Adobe Illustrator 19.2.0, SVG Export Plug-In . SVG Version: 6.00 Build 0)  -->

<svg
   version="1.1"
   x="0px"
   y="0px"
   viewBox="0 0 2879.9084 915.11169"
   xml:space="preserve"
   id="svg2132"
   sodipodi:docname="makerspace.svg"
   inkscape:version="1.1.2 (0a00cf5339, 2022-02-04)"
   width="2879.9084"
   height="915.11169"
   inkscape:export-filename="/home/dan/projects/github/makerspace/stauntonmakerspace.github.io/src/assets/images/makerspace/makerspace.png"
   inkscape:export-xdpi="96"
   inkscape:export-ydpi="96"
   xmlns:inkscape="http://www.inkscape.org/namespaces/inkscape"
   xmlns:sodipodi="http://sodipodi.sourceforge.net/DTD/sodipodi-0.dtd"
   xmlns="http://www.w3.org/2000/svg"
   xmlns:svg="http://www.w3.org/2000/svg"><defs
   id="defs2136">
	
	
	
	
	
	
	
	
	
	
	
	
	
	
	
	
	
	
	
	
	
	
	
	
	
	
	
	
	
	
	
	
	
	
	
	
	
	
	
	
	
	
	
	
	
	
	
	
	
	
	
	
	
	
	
	
	
	
	
	
	
	
	
	
	
	

	
		
	
	
	
	
	
	
	
	
	
	
	
	
	
	
	
	
	
	
	
	
	
	
	
	
	
	
	
	
	
	
	
	
	
	
	
	
	
	
	
	
	
	
	
	
	
</defs><sodipodi:namedview
   id="namedview2134"
   pagecolor="#000000"
   bordercolor="#666666"
   borderopacity="1.0"
   inkscape:pageshadow="2"
   inkscape:pageopacity="0"
   inkscape:pagecheckerboard="0"
   showgrid="false"
   inkscape:zoom="1.0852125"
   inkscape:cx="862.5039"
   inkscape:cy="628.44835"
   inkscape:window-width="3840"
   inkscape:window-height="2123"
   inkscape:window-x="0"
   inkscape:window-y="0"
   inkscape:window-maximized="1"
   inkscape:current-layer="svg2132"
   fit-margin-top="0"
   fit-margin-left="0"
   fit-margin-right="0"
   fit-margin-bottom="0" />
<style
   type="text/css"
   id="style1904">
	.st0{fill:#FFFFFF;}
</style>
<path
   d="m 671.50853,498.1 c 0,59.3 0,118.5 0,178.6 -17.3,0.1 -34.3,0 -51,0 -0.4,-0.4 -0.6,-0.5 -0.7,-0.6 -0.1,-0.1 -0.3,-0.3 -0.3,-0.4 -0.1,-1.1 -0.3,-2.1 -0.3,-3.2 0,-77.1 0,-154.2 0.1,-231.4 0,-0.5 0.3,-1 0.5,-1.9 1.5,-0.1 3.1,-0.3 4.6,-0.3 23.1,0 46.1,0 69.2,0 5,0 5,0 6.7,4.9 17,48 33.9,96 50.9,144 0.5,1.5 1.1,3 2.2,5.8 6.8,-17.9 12.6,-35 18.7,-52 6.1,-16.9 12.1,-33.9 18.1,-50.8 6.1,-17.1 12.1,-34.2 18.3,-51.5 26.5,0 52.7,0 79.1,0 0,79.2 0,158 0,237.2 -17.3,0 -34.4,0 -51.9,0 0,-59.7 0,-119.2 0,-178.7 -0.7,0 -0.9,0 -1.1,0 -0.2,0.1 -0.4,0.2 -0.4,0.3 -20.5,59.3 -40.9,118.7 -61.5,178.4 -13.5,0 -26.9,0 -40.7,0 -19.7,-59.6 -39.4,-119.1 -59.1,-178.6 -0.5,-0.1 -1,0.1 -1.4,0.2 z"
   id="path1908"
   style="fill:#ffffff" /><path
   d="m 1767.7085,576.4 c 20.1,33.5 39.9,66.3 60,99.8 -2.4,0.2 -4.1,0.4 -5.8,0.4 -17.5,0 -35,-0.1 -52.4,0.1 -3.8,0 -5.7,-1.2 -7.5,-4.6 -14.6,-28.1 -29.3,-56.1 -44.1,-84.2 -0.1,-0.2 -0.2,-0.3 -0.2,-0.5 -1.4,-4.3 -4.2,-6 -8.9,-5.7 -6.3,0.5 -12.6,0.1 -19.5,0.1 -0.6,16 -0.2,31.6 -0.3,47.1 -0.1,15.6 0,31.2 0,47.2 -17.6,0 -34.6,0 -51.6,0 -1.1,-4.4 -1.2,-232.2 0,-237.5 1.6,0 3.4,0 5.1,0 30.1,0 60.2,-0.2 90.3,0.1 15.5,0.2 30.9,2.1 45.4,8 24.2,9.8 37.3,27.9 39.9,53.7 1,9.7 0.9,19.4 -1.5,29 -6.1,24.7 -21.2,40.3 -46.1,46.1 -0.5,0.4 -1.2,0.5 -2.8,0.9 z m -78.4,-40 c 15.9,0 31.2,0.2 46.5,-0.1 4.4,-0.1 8.9,-1.4 13.1,-2.8 5.6,-1.9 10.5,-5.4 12.6,-11.1 5.1,-13.4 2.7,-29.7 -14.3,-35.3 -5.9,-1.9 -12.3,-2.9 -18.5,-3.2 -11.9,-0.5 -23.8,-0.2 -35.7,-0.1 -1.2,0 -2.4,0.2 -3.8,0.4 0.1,17.6 0.1,34.8 0.1,52.2 z"
   id="path1910"
   style="fill:#ffffff" /><path
   d="m 1239.4085,535.9 c 7.9,-8.4 15.7,-16.7 23.6,-25.1 21.4,-22.9 42.8,-45.8 64.1,-68.7 1.8,-1.9 3.5,-3.3 6.4,-3.3 20.5,0.1 41.1,0.1 61.6,0.1 0.8,0 1.7,0.2 3.8,0.4 -35.3,37.2 -70.3,73.4 -105.3,110.2 38,42.1 75.8,84.1 114.1,126.5 -1.6,0.3 -2.7,0.7 -3.9,0.7 -21.8,0 -43.6,0 -65.4,0.1 -3.3,0 -5.2,-1.5 -7.2,-3.8 -22.8,-26.7 -45.7,-53.4 -68.5,-80.1 -6.9,-8.1 -13.8,-16.2 -20.7,-24.2 -0.9,-1 -1.9,-1.9 -3.8,-3.7 0,37.8 0,74.4 0,111.3 -17.6,0 -34.7,0 -52.1,0 0,-79 0,-157.8 0,-236.6 3.8,-1.2 46,-1.4 52,-0.2 0,31.9 0,63.9 0,95.8 0.4,0.3 0.8,0.4 1.3,0.6 z"
   id="path1912"
   style="fill:#ffffff" /><path
   d="m 1595.2085,676.3 c -56,0 -111.6,0 -167.4,0 0,-79.2 0,-158 0,-237.1 53.8,0 107.2,0 160.6,0 1,4 1.4,40 0.4,48.6 -7,0 -14.2,0.1 -21.3,0.1 -7.2,0 -14.4,0 -21.6,0 -7.2,0 -14.4,0 -21.6,0 -7.2,0 -14.4,0 -21.6,0 -7.2,0 -14.4,0 -21.5,0 -1.1,4.2 -1.4,34.6 -0.5,43.4 33.9,0 67.8,0 102.1,0 0,16.5 0,32.4 0,48.7 -34.1,0 -67.9,0 -101.6,0 -1.2,4.2 -1.5,39.5 -0.4,47.7 38,0 76,0 114.4,0 0,16.5 0,32.3 0,48.6 z"
   id="path1914"
   style="fill:#ffffff" /><path
   d="m 2879.9085,676.4 c -55.8,0 -111.2,0 -166.6,0 -1.1,-4.3 -1.3,-231.9 -0.1,-237.2 53.3,0 106.7,0 160.4,0 0,16.3 0,32.2 0,48.8 -36.2,0 -72.2,0 -108.4,0 0,14.7 0,28.6 0,43.2 6.8,0.6 13.5,0.2 20.3,0.3 6.8,0.1 13.7,0 20.5,0 6.8,0 13.7,0 20.5,0 6.8,0 13.7,0 20.5,0 6.8,0 13.6,0 20.7,0 0,16.3 0,32.1 0,48.4 -34.1,0 -68,0 -101.8,0 -1.3,4.3 -1.6,39.8 -0.5,47.8 38,0 76,0 114.4,0 0.1,16.5 0.1,32.2 0.1,48.7 z"
   id="path1916"
   style="fill:#ffffff" /><path
   d="m 2311.3085,438.8 c 13.3,0 26.8,0 40.3,0 2.6,0 3.4,1.6 4.2,3.4 3.9,9.1 7.9,18.1 11.9,27.2 29.1,67 58.3,134 87.4,201 0.8,1.8 1.4,3.6 2.3,5.9 -20,0 -39.5,0 -59.4,0 -6.7,-16.4 -13.4,-32.9 -20.2,-49.5 -30.6,0 -61,0 -91.9,0 -1.5,3.8 -3.1,7.8 -4.7,11.7 -4.5,11.4 -9,22.8 -13.4,34.2 -1,2.7 -2.2,4.1 -5.4,4 -17.1,-0.2 -34.2,-0.1 -51.4,-0.1 -0.7,0 -1.4,-0.2 -2.1,-0.3 0.6,-3.9 98.9,-232.1 102.4,-237.5 z m 20.3,71.7 c -0.4,0 -0.9,0.1 -1.3,0.1 -9.1,23.4 -18.3,46.8 -27.4,70.2 7,1.2 52.4,0.9 56.4,-0.4 -9.3,-23.3 -18.5,-46.6 -27.7,-69.9 z"
   id="path1918"
   style="fill:#ffffff" /><path
   d="m 1160.5085,676.4 c -20.3,0 -39.7,0 -59.6,0 -6.7,-16.4 -13.4,-32.9 -20.2,-49.6 -30.5,0 -61.1,0 -91.99997,0 -6.4,16.3 -12.9,32.7 -19.5,49.4 -19.1,0 -38.2,0 -58.3,0 34.3,-79.4 68.4,-158.2 102.49997,-237.2 14.7,0 29.1,0 43.9,0 34.2,78.9 68.5,157.7 103.2,237.4 z m -154.9,-95.2 c 19.1,0 37.5,0 56.8,0 -9.5,-24 -18.8,-47.5 -28,-70.9 -0.4,0 -0.7,0 -1.1,-0.1 -9.2,23.5 -18.3,47 -27.7,71 z"
   id="path1920"
   style="fill:#ffffff" /><path
   d="m 2046.2085,676.3 c 0,-79.1 0,-157.9 0,-237.1 1.8,-0.1 3.4,-0.4 4.9,-0.4 29.5,0 59.1,-0.2 88.6,0.1 13.7,0.2 27.3,1.8 40.4,6.1 20.2,6.7 34.7,19.5 41.3,40.1 3.8,12 4.2,24.4 3,36.9 -1,10.9 -3.9,21.2 -9.7,30.6 -9.3,15 -23.3,23.1 -39.9,27.3 -12.3,3.1 -24.8,4.2 -37.4,4.4 -11,0.1 -22,0 -33,0 -1.8,0 -3.5,0.2 -5.8,0.3 0,30.7 0,61 0,91.7 -17.7,0 -34.8,0 -52.4,0 z m 52.8,-191.6 c 0,17.8 0,35.9 0,54.2 1.3,0.2 2.3,0.4 3.4,0.4 12.4,-0.1 24.9,0.1 37.3,-0.4 4.7,-0.2 9.6,-1.4 14.1,-3.1 11.2,-4.3 16.4,-12.5 16.3,-24.7 0,-11.3 -5.4,-19.1 -16.4,-23.5 -2.7,-1.1 -5.4,-2.1 -8.2,-2.5 -15.2,-2.3 -30.5,-1.3 -45.8,-1.1 -0.2,0.1 -0.3,0.3 -0.7,0.7 z"
   id="path1922"
   style="fill:#ffffff" /><path
   d="m 1836.0085,652.4 c 12,-13.2 23.5,-25.9 34.9,-38.5 0.7,-0.8 1.3,-1.7 2.9,-3.7 0.9,1.7 1.3,2.8 2,3.6 11.3,13.3 26.1,19.6 43.2,20 8.8,0.2 17.5,-1.6 25.3,-6.4 9.6,-5.9 13.3,-16.2 9.4,-26.1 -1.7,-4.4 -4.8,-7.5 -8.6,-10.1 -9.3,-6.4 -20,-9.6 -30.6,-13.2 -10.2,-3.5 -20.4,-6.9 -30.5,-10.6 -3.7,-1.4 -7.2,-3.4 -10.6,-5.4 -17.1,-10.2 -28,-24.4 -29.4,-45 -1.7,-24.3 5.4,-45.1 23.8,-61.5 11.7,-10.5 25.6,-16.6 40.8,-19.8 24.1,-5 48,-3.4 71.1,5.1 10.2,3.7 19.4,9.4 27.9,17.3 -12,13.2 -23.8,26.1 -35.9,39.3 -1.2,-1 -2.1,-1.8 -3,-2.6 -6.3,-6.4 -14.3,-9.4 -22.8,-11.5 -12.6,-3 -24.7,-1.7 -36.1,4.5 -9.7,5.3 -13.5,15.2 -10.2,25.2 1.4,4.3 4.1,7.7 8,9.8 5.8,3.1 11.8,6.3 18,8.5 9.3,3.3 19,5.6 28.2,8.9 7.9,2.8 15.9,5.8 23.2,9.9 19.4,10.8 29.9,27.3 30.6,49.9 0.6,18.8 -3.2,36.1 -15,51.2 -8.7,11.1 -19.7,19.1 -32.8,23.8 -31.2,11.1 -62.4,10.6 -93.2,-2 -11.2,-4.7 -21.2,-11.7 -30.6,-20.6 z"
   id="path1924"
   style="fill:#ffffff" /><path
   d="m 2638.8085,608.3 c 14.5,10.9 29,21.6 43.6,32.6 -5.5,8.5 -12.2,15.3 -20.1,21.1 -16.1,11.8 -34.3,18 -54,19.9 -27,2.6 -52.8,-1.7 -76.9,-14 -33.5,-17.1 -53.3,-44.9 -60.6,-81.5 -5,-25.3 -4.1,-50.6 4.8,-75.1 14.3,-39.3 42.6,-63.1 82.5,-73.8 15.4,-4.2 31.3,-5.4 47.1,-4.2 23.6,1.7 45.1,9.1 62.9,25.3 3,2.8 5.7,6 8.9,9.4 -13.7,11.3 -27,22.2 -41.2,33.8 -1.4,-1.8 -2.5,-3.7 -4,-5.2 -13.4,-12.5 -29.8,-16.3 -47.5,-14.5 -32.6,3.5 -53.3,27.5 -59.4,56.6 -4.3,20.5 -2.3,40.5 7.6,59.3 9.7,18.3 24.4,30.8 45.1,34.5 23.6,4.3 43.8,-2.1 58.9,-21.6 0.7,-0.9 1.4,-1.6 2.3,-2.6 z"
   id="path1926"
   style="fill:#ffffff" /><path
   d="m 1451.8085,311.7 c 0,26.9 0,53.8 0,81 -9.1,0 -17.7,0 -26.5,0 0,-39.3 0,-78.5 0,-118.2 1.2,-0.1 2.6,-0.4 4,-0.4 9,0 18,0.1 27,-0.1 3.3,-0.1 5.1,1 6.8,3.8 14.2,23.6 28.6,47.1 42.9,70.6 1.2,1.9 2.4,3.8 4.6,5.5 0,-26.3 0,-52.7 0,-79.4 9.1,0 17.6,0 26.6,0 0,39.3 0,78.6 0,118.2 -11.4,0 -22.7,0 -34.4,0 -16.4,-26.9 -33,-54.1 -49.6,-81.2 -0.6,0.1 -1,0.2 -1.4,0.2 z"
   id="path1930"
   style="fill:#ffffff" /><path
   d="m 1138.4085,354.1 c 0,-26.4 0,-52.7 0,-79.8 9,-0.3 17.6,-0.1 26.1,-0.1 1.2,4 1.6,109.5 0.4,118.9 -1.8,0 -3.7,0 -5.6,0 -7.9,0 -15.9,-0.2 -23.8,0.1 -3.6,0.1 -5.5,-1.2 -7.3,-4.1 -14.8,-24.5 -29.8,-48.9 -44.7,-73.3 -1,-1.6 -2.1,-3.2 -4,-4.6 0,27.1 0,54.1 0,81.6 -9.1,0 -17.6,0 -26.4,0 0,-39.3 0,-78.5 0,-118.1 1.3,-0.1 2.7,-0.4 4.1,-0.4 9,0 18,0.1 27,-0.1 3.3,-0.1 5.1,1.1 6.8,3.9 14.2,23.6 28.6,47.1 43,70.6 1.2,1.9 2.4,3.8 3.6,5.7 0.2,-0.2 0.5,-0.3 0.8,-0.3 z"
   id="path1932"
   style="fill:#ffffff" /><path
   d="m 1279.1085,333.9 c 0,-18.2 5.3,-34.4 19.2,-46.9 9.7,-8.7 21.2,-13.3 34,-15 12.4,-1.7 24.5,-0.8 36.2,3.5 21.8,8.1 34.4,23.9 38.2,46.9 1.7,10.7 1.3,21.2 -1.9,31.5 -6.3,20.8 -20.4,34 -41.1,39.8 -14.7,4.1 -29.6,3.8 -44.2,-1 -23.4,-7.6 -38.9,-28 -40.4,-52.8 -0.1,-2 0,-4 0,-6 z m 100.7,0.4 c 0,-1.4 0.1,-2.9 0,-4.3 -1.4,-15.1 -8.4,-26.3 -22.8,-31.9 -14.4,-5.5 -31,-1.9 -40.8,9 -9.6,10.6 -11.5,23.4 -8.5,36.9 5.9,26.1 32.3,32.8 51.3,24.6 14.7,-6.5 20.6,-18.9 20.8,-34.3 z"
   id="path1934"
   style="fill:#ffffff" /><path
   d="m 1002.1085,274.4 c 9.2,0 17.6,0 26.5,0 0.1,1.7 0.3,3.3 0.3,4.9 0,22.9 0.2,45.7 -0.1,68.6 -0.1,5.5 -0.9,11.2 -2.4,16.5 -4.3,15.2 -14.5,25 -29.49997,29.5 -12,3.6 -24.2,3.5 -36.2,0 -18.5,-5.4 -30.5,-20.8 -31.8,-40.6 -0.4,-6.8 -0.2,-13.7 -0.2,-20.5 0,-17.3 0,-34.6 0,-51.9 0,-2 0,-3.9 0,-6.3 8.8,0 17.4,0 26.6,0 0.1,1.7 0.2,3.6 0.2,5.5 0,21.8 0,43.6 0,65.4 0,7.1 1.7,13.4 6.5,18.9 9.8,11.2 31.4,10.1 38.09997,-7.3 1.4,-3.8 2,-8.1 2.1,-12.1 0.2,-21.4 0.1,-42.9 0.1,-64.3 -0.2,-1.9 -0.2,-3.9 -0.2,-6.3 z"
   id="path1936"
   style="fill:#ffffff" /><path
   d="m 792.20853,392.9 c 17.2,-39.8 34.2,-79.2 51.2,-118.5 7.5,0 14.7,0 22.2,0 17.1,39.3 34.2,78.7 51.5,118.5 -10.3,0 -20,0 -30.1,0 -3.3,-8.1 -6.7,-16.3 -10.1,-24.5 -15.3,0 -30.3,0 -45.5,0 -3.3,8.2 -6.5,16.3 -9.8,24.6 -9.7,-0.1 -19.2,-0.1 -29.4,-0.1 z m 61.5,-83.1 c -4.9,12.5 -9.3,23.8 -13.8,35.3 9.4,0 18.2,0 27.8,0 -4.7,-11.7 -9.1,-23 -14,-35.3 z"
   id="path1938"
   style="fill:#ffffff" /><path
   d="m 704.60853,283.9 c -6.1,6.7 -11.9,13 -18,19.7 -4.1,-3.9 -8.9,-6.2 -14.2,-7.3 -5.5,-1.1 -10.8,-0.3 -15.8,2 -3.8,1.8 -6.4,4.8 -6.6,9.1 -0.2,4.4 2,7.7 5.9,9.5 4.9,2.2 10,4.1 15,5.9 4.4,1.6 8.9,2.7 13.3,4.4 5.1,1.9 9.6,4.9 13.4,8.9 7.3,7.8 8.3,17.4 6.9,27.3 -2,14 -9.9,23.9 -23.1,28.8 -18.5,6.9 -36.7,5.9 -54,-4.2 -3,-1.8 -5.7,-4.2 -9,-6.6 6.5,-7.2 12.7,-13.9 18.8,-20.6 2.5,2.2 4.5,4.2 6.9,5.8 7.8,5.4 16.3,6.5 25.2,3.6 3.9,-1.2 7.1,-3.6 8.4,-7.8 1.4,-4.3 0,-8.8 -4.2,-11.3 -4.6,-2.7 -9.7,-4.7 -14.6,-6.7 -5.7,-2.2 -11.6,-3.8 -17.2,-6.2 -9.5,-4.1 -16.9,-10.6 -18.6,-21.4 -1.9,-11.9 0.5,-22.9 9.1,-32 6.2,-6.5 13.8,-10.2 22.5,-12.1 15.2,-3.2 29.7,-1.6 43.3,6 1.3,0.7 2.4,1.6 3.6,2.4 0.7,0.7 1.5,1.5 3,2.8 z"
   id="path1940"
   style="fill:#ffffff" /><path
   d="m 1272.3085,274.8 c 0,7.4 0,14.9 0,22.9 -11.1,0 -22,0 -33.5,0 0,32 0,63.4 0,95.1 -9.1,0 -17.5,0 -26.6,0 -0.2,-6.2 -0.1,-12.4 -0.1,-18.6 0,-6.3 0,-12.6 0,-18.9 0,-6.3 0,-12.6 0,-18.9 0,-6.3 0,-12.6 0,-18.9 0,-6.3 0,-12.6 0,-19.4 -11.2,0 -22.1,0 -33.7,0 -0.3,-8 -0.1,-15.5 -0.1,-22.9 3.8,-1.3 86.8,-1.6 94,-0.4 z"
   id="path1942"
   style="fill:#ffffff" /><path
   d="m 712.90853,297.8 c 0,-8.1 0,-15.5 0,-23.4 31.2,0 62.2,0 93.6,0 0,7.6 0,15.1 0,23.2 -10.9,0 -21.8,0 -33.2,0 0,32 0,63.4 0,95.1 -9.1,0 -17.7,0 -26.9,0 0,-31.5 0,-62.9 0,-94.9 -11.5,0 -22.4,0 -33.5,0 z"
   id="path1944"
   style="fill:#ffffff" />
<rect
   x="1362.6147"
   y="-299.81628"
   transform="rotate(23.565731)"
   class="st0"
   width="4.49999"
   height="137.49969"
   id="rect2039"
   style="fill:#000000;stroke-width:0.999998" /><rect
   x="2099.0085"
   y="426.89999"
   class="st0"
   width="8"
   height="182"
   id="rect2041"
   style="fill:#000000" /><rect
   x="1689.3086"
   y="426.89999"
   class="st0"
   width="8"
   height="182"
   id="rect2043"
   style="fill:#000000" /><polygon
   class="st0"
   points="1124.3,774.2 1119.5,774.2 1128,751.1 1133,751.1 "
   id="polygon2125"
   style="fill:#ffffff"
   transform="translate(-288.09147,-405.9)" /><polygon
   class="st0"
   points="1286.4,1033.2 1276.8,1033.2 1293.8,987.1 1303.9,987.1 "
   id="polygon2127"
   style="fill:#ffffff"
   transform="translate(-288.09147,-405.9)" /><polygon
   class="st0"
   points="2583.7,1032.7 2574.1,1032.7 2591.1,986.6 2601.2,986.6 "
   id="polygon2129"
   style="fill:#ffffff"
   transform="translate(-288.09147,-405.9)" />
<path
   inkscape:connector-curvature="0"
   style="fill:#f9f9f9;stroke:#000000;stroke-width:1.81489;stroke-linecap:round;stroke-miterlimit:10"
   d="M 359.36868,406.57136 383.525,391.1412 400.14816,365.63514 m 3.34783,-4.16933 6.23322,-9.96664 -9.58665,7.33632 c -3.5896,-3.01671 -5.48786,-4.6757 -8.65515,-6.37152 0.54446,-1.27043 3.64994,-6.87734 4.55738,-8.51074 0.90745,-1.6334 1.63483,-3.26679 2.36077,-4.53722 l 0.18076,-0.18148 v -0.18149 c 0,-0.1815 -0.18076,-0.36444 -0.18076,-0.54591 -0.18149,-0.54447 -0.18003,-0.72523 -0.36156,-1.08822 -0.18149,-0.54447 -0.36508,-0.90744 -0.36508,-0.90744 0,0 -0.36299,-7.3e-4 -0.90746,0.18149 -0.36298,0.18148 -0.72524,0.18366 -1.08823,0.36515 -0.18149,0 -0.36438,0.1815 -0.54588,0.1815 -0.18149,0 -0.18076,-7.3e-4 -0.18076,0.18148 l -0.18076,0.18149 c -0.54447,1.27043 -1.45332,2.90382 -2.36077,4.53722 -0.88808,1.59872 -3.93413,7.33413 -4.74637,8.77315 -1.32642,-0.72776 -2.72301,-1.43848 -4.32806,-2.0559 -1.08893,-0.36297 -2.35936,-0.72594 -3.62977,-0.90744 -0.72596,-0.18149 -1.26971,-0.18367 -1.99567,-0.36515 -0.72596,0 -1.26971,-0.18149 -1.99567,-0.18149 -0.68059,-0.0907 -1.37321,-0.13799 -2.07365,-0.14888 -0.0728,-0.001 -0.14684,0 -0.21976,0 0.017,-0.0199 0.0192,-0.04 0.039,-0.0599 v -0.3617 -0.36498 c -0.18151,-1.4519 -0.4672,-8.50656 -0.64868,-10.50293 -0.18149,-1.99637 -0.3644,-3.99221 -0.54588,-5.62561 v -0.36153 c 0.18148,0 0.18148,-0.18147 0,-0.18147 -0.18151,0 -0.36086,-0.18368 -0.54235,-0.36517 -0.36298,-0.36297 -0.72595,-0.54501 -0.90744,-0.72649 -0.54447,-0.36299 -0.90744,-0.54247 -0.90744,-0.54247 l -2.7e-4,-10e-4 c 0,0 -0.36369,0.18221 -0.72668,0.72667 -0.18147,0.1815 -0.54518,0.54447 -0.72665,0.90746 -0.1815,0.18147 -0.18004,0.36079 -0.36156,0.54228 v 0.36515 0.36153 c 0.18149,1.4519 0.36086,3.62905 0.54234,5.62542 0.18149,1.99637 0.46718,8.86973 0.64868,10.50313 v 0.32957 c -0.69862,0.0781 -1.397,0.14888 -2.09846,0.23757 -1.45192,0.36297 -2.90454,0.54719 -4.35644,1.09166 -0.72596,0.36297 -1.45403,0.54446 -2.18,0.90743 l -2.17645,1.08822 c -0.16827,0.0961 -0.34088,0.21469 -0.51043,0.3156 -1.55355,-1.77623 -7.02232,-7.84829 -8.56399,-9.39004 -1.45193,-1.6334 -3.08672,-3.2668 -4.17565,-4.53723 0,0 -0.18076,7.4e-4 -0.18076,-0.18147 0,-0.1815 6.9e-4,-0.18422 -0.18077,-0.18422 -0.36298,-0.18149 -0.54518,-0.18149 -0.72667,-0.18149 -0.36297,-0.18148 -0.72525,-0.18148 -1.08822,-0.18148 h -1.08823 v 1.0882 1.08839 0.7265 c 0,0 -7e-4,0.18148 0.18076,0.18148 l 0.18076,0.18422 c 1.08894,1.27042 2.54227,2.90382 4.17567,4.53722 1.32094,1.48603 6.43155,7.01726 8.23433,9.03541 -1.31019,1.01888 -2.57623,2.17678 -3.69711,3.48458 l -0.90746,0.90744 c -0.18147,0.36299 -0.54518,0.72868 -0.72665,1.09166 -0.54447,0.54446 -1.09035,1.26969 -1.45332,1.99565 -0.54447,0.72596 -0.90604,1.45046 -1.26901,2.17642 -0.46518,0.62031 -0.67516,1.35825 -0.95,2.01706 -2.80379,-1.49402 -8.95022,-4.69856 -10.84676,-5.64685 -2.17787,-1.27041 -4.35714,-2.35716 -5.99054,-3.26461 -0.18149,0 -0.36158,-0.1842 -0.36158,-0.1842 -0.18147,-0.1815 -0.18003,-0.1815 -0.36156,-0.1815 -0.18147,0.1815 -0.54518,0.1815 -0.72665,0.1815 -0.54447,0 -0.90957,0.1842 -1.27254,0.1842 -0.72596,0 -1.08823,0.18149 -1.08823,0.18149 0,0 0.18362,0.36226 0.36509,1.0882 l 0.54234,1.08822 c 0.1815,0.18147 0.18362,0.54518 0.36512,0.72667 0,0.1815 -7.2e-4,0.1815 0.18076,0.1815 0.18148,0 0.18003,0.18147 0.36156,0.18147 1.6334,0.90746 3.81268,2.17914 5.99054,3.26808 2.01641,1.17623 9.15662,4.74864 11.56281,6.02252 -0.55965,2.1069 -0.92275,4.29965 -1.03859,6.50093 l -0.18076,1.26896 v 1.2726 2.53812 c 0.13441,1.34537 0.29464,2.66643 0.50332,3.93812 -2.60479,0.14156 -8.04777,0.62578 -9.93933,0.7833 -2.17786,0 -4.35714,0.17967 -5.99053,0.36152 h -0.36156 c -0.1815,-0.18147 -0.3651,-0.18147 -0.3651,0 l -0.54236,0.54593 c -0.18149,0.36297 -0.54516,0.72595 -0.72666,0.90744 -0.54446,0.36297 -0.72665,0.72324 -0.72665,0.72324 0,0 0.18219,0.36351 0.72665,0.72649 0.1815,0.18149 0.54447,0.54519 0.90746,0.72669 0.18148,0 0.36438,0.17967 0.54588,0.36169 h 0.36156 0.36156 c 1.63339,0 3.81267,-0.17967 5.99053,-0.36169 2.00551,0 8.20919,-0.56534 10.51359,-0.8011 0.22058,0.82631 0.47644,1.65264 0.73731,2.43521 0.18148,0.90746 0.54447,1.63413 0.90744,2.54157 l 0.54588,1.26898 0.54587,1.26915 1.08824,2.36062 1.44977,2.3608 0.72666,1.0882 0.62388,0.93577 c -1.51439,1.18928 -6.50636,4.75264 -7.70263,5.77787 -1.45191,1.08893 -2.72163,2.18004 -3.81057,3.08748 0,0.18149 -0.18076,0.18149 -0.18076,0.18149 -0.18148,0 -0.18076,-7.3e-4 -0.18076,0.18148 v 0.54593 1.0882 0.90744 c 0,0 0.36299,-7.2e-4 0.90745,0.18149 0.36297,0 0.72525,0.1815 1.08822,0.1815 h 0.54588 l 0.18076,-0.1815 0.18076,-0.18149 c 1.08894,-0.90744 2.54014,-1.99836 3.81057,-3.08729 1.30986,-0.98259 5.68596,-4.20673 7.39424,-5.54049 l 1.13785,1.36824 0.90743,1.0882 0.90746,0.90744 1.81487,1.81489 1.99568,1.8149 1.08821,0.90743 1.08822,0.72668 2.18001,1.63413 c 0.78202,0.48874 1.57162,0.96879 2.38204,1.42849 -1.26424,1.96661 -4.47958,7.07443 -5.28869,8.36917 -0.90746,1.45191 -1.81207,2.90582 -2.53801,3.99475 l -0.18432,0.1815 v 0.18149 c 0,0.18148 0.18432,0.36442 0.18432,0.54591 0.18148,0.36297 0.36154,0.54447 0.36154,0.90744 0.1815,0.54447 0.36158,0.90745 0.36158,0.90745 0,0 0.36297,-0.18149 0.90743,-0.18149 0.36299,0 0.72879,-0.18422 1.09178,-0.18422 0.18148,-0.18147 0.36084,-0.18147 0.54232,-0.18147 0.18151,0 0.18076,7.1e-4 0.18076,-0.1815 l 0.18434,-0.18149 c 0.72596,-1.08893 1.63057,-2.54285 2.53799,-3.99475 0.81396,-1.30236 4.07586,-6.48405 5.32061,-8.41872 1.13074,0.49165 2.26113,0.96643 3.39228,1.34338 0.90744,0.1815 1.63411,0.54175 2.54155,0.72324 0.36297,0.18148 0.90602,0.18349 1.269,0.36497 l 1.27253,0.18149 c 1.81047,0.38113 3.62039,0.60291 5.43049,0.68421 v 0.24465 c 0.18151,1.6334 0.55583,9.96192 0.73731,12.32126 0.18149,2.35936 0.3644,4.53723 0.54588,6.35212 v 0.36152 c -0.18148,0.18148 -0.18148,0.17968 0,0.3617 l 0.54589,0.54574 0.90742,0.90744 c 0.54447,0.54447 0.90746,0.72669 0.90746,0.72669 0,0 0.36014,-0.36299 0.72313,-0.90745 0.18148,-0.18148 0.54517,-0.54447 0.72664,-0.90744 0.1815,-0.1815 0.18362,-0.36444 0.3651,-0.54591 v -0.36153 -0.36498 c -0.18149,-1.6334 -0.36438,-3.99275 -0.54586,-6.3521 -0.18149,-2.35935 -0.55937,-10.50312 -0.74086,-12.31801 v -0.15245 c 0.24683,-0.0199 0.49401,-0.0237 0.74086,-0.049 0.90744,-0.18148 1.6341,-0.18366 2.54155,-0.36515 0.90744,-0.1815 1.6341,-0.3608 2.54155,-0.54229 0.72594,-0.36297 1.63127,-0.72596 2.35723,-0.90744 0.36297,0 0.72525,-0.18367 1.0882,-0.36517 l 1.09178,-0.54228 c 0.14326,-0.10703 0.30415,-0.18167 0.45725,-0.27641 l 0.0674,0.0672 0.18077,0.1815 c 0.72594,1.27041 6.00755,9.10274 7.09648,10.91763 1.08893,1.81489 2.17999,3.62832 3.08745,4.89875 0,0 0.18076,-7.4e-4 0.18076,0.18147 0,0 -7e-4,0.1815 0.18076,0.1815 0.36297,0 0.54516,0.18421 0.72666,0.18421 0.36297,0.18148 0.72525,0.36153 1.08822,0.36153 0.72596,0.18148 1.08823,0.18148 1.08823,0.18148 0,0 -7e-4,-0.54374 0.18076,-1.0882 0,-0.36297 0.18432,-0.72523 0.18432,-1.0882 0.1815,-0.1815 0.18077,-0.5452 0.18077,-0.7267 l -0.18077,-0.18147 -0.18432,-0.1815 c -0.72594,-1.27042 -1.99495,-3.08748 -3.08389,-4.90237 -1.08893,-1.81489 -6.18904,-9.64358 -7.0965,-10.91401 -0.18147,0 -0.18076,7.3e-4 -0.18076,-0.18149 0,0 -0.0119,-0.058 -0.0495,-0.11077 0.0206,-0.0182 0.0471,-0.0327 0.0674,-0.0454 l 0.18076,-0.18148 h 0.18076 l 0.18432,-0.18422 0.54234,-0.36171 0.90745,-0.72668 c 0.72595,-0.54446 1.27041,-1.08947 1.81488,-1.63394 0.54446,-0.72596 1.08965,-1.27043 1.63411,-1.81489 0.36297,-0.54447 0.90603,-1.27041 1.269,-1.81488 0.59507,-0.5951 1.02206,-1.29765 1.41079,-2.02051 1.81786,1.34102 8.6564,6.6169 10.2052,7.64937 1.6334,1.27043 3.2668,2.35718 4.53721,3.26462 l 0.18076,0.1815 c 0,0.18149 0.003,0.18421 0.18432,0.18421 h 0.72314 c 0.36297,0 0.72878,-0.18421 1.09175,-0.18421 0.72596,0 1.08822,-0.1815 1.08822,-0.1815 0,0 7.1e-4,-0.54373 -0.18076,-1.0882 0,-0.36297 -0.003,-0.72523 -0.18432,-1.0882 0,-0.36299 -0.18076,-0.5452 -0.18076,-0.72669 0,-0.18148 7.1e-4,-0.18148 -0.18077,-0.18148 l -0.18076,-0.18149 c -1.27041,-0.90744 -2.90381,-1.99784 -4.53721,-3.26825 -1.63339,-1.27042 -9.47712,-7.15319 -10.74753,-8.06064 l -0.0602,-0.0563 c 0.78113,-1.96226 1.4616,-4.002 1.73335,-6.04012 0.1815,-0.72596 0.18004,-1.26988 0.36158,-1.99583 0,-0.72596 0.18076,-1.26969 0.18076,-1.99565 0.1815,-1.27043 0,-2.54012 0,-3.81053 -0.0965,-1.25627 -0.24841,-2.50928 -0.47501,-3.71127 2.94529,0.42232 8.15981,1.23357 10.09532,1.5314 2.35934,0.36299 4.53792,0.72596 6.17132,0.90745 h 0.36156 0.36511 c 0.1815,-0.18149 0.36085,-0.17967 0.54234,-0.36171 0.36297,-0.1815 0.54447,-0.36425 0.90742,-0.54574 0.54447,-0.54447 0.90744,-0.72322 0.90744,-0.72322 0,0 -0.36369,-0.36299 -0.72666,-0.90746 -0.18149,-0.36297 -0.36015,-0.54446 -0.7231,-0.90744 l -0.5459,-0.54591 c -0.18147,-0.18149 -0.18003,-0.18149 -0.36154,-0.18149 h -0.36511 c -1.6334,-0.1815 -3.81196,-0.54447 -6.17132,-0.90744 -2.27029,-0.34919 -9.71227,-1.51979 -11.74361,-1.77224 -0.5063,-4.1688 -2.92407,-8.70655 -5.26604,-12.68714 l 8.66188,-6.0503 c 1.4519,-0.90744 3.08671,-1.81543 4.17564,-2.54138 0,-0.18149 0.18077,-0.18149 0.18077,-0.18149 0.18149,0 0.18076,7.3e-4 0.18076,-0.1815 0.18149,-0.18147 0.18076,-0.36424 0.18076,-0.54572 0,-0.36299 0.18432,-0.72542 0.18432,-1.08839 0.1815,-0.54446 0.18076,-0.90745 0.18076,-0.90745 0,0 -0.36297,-0.17968 -0.90743,-0.36153 -0.1815,-0.18149 -0.54447,-0.36498 -0.90744,-0.36498 -0.1815,0 -0.36438,-0.18148 -0.54588,-0.18148 0,-0.18149 -0.18076,0 -0.18076,0 0,0.18148 -0.18076,0.18148 -0.18076,0.18148 -1.08894,0.72596 -2.72376,1.63396 -4.17567,2.5414 l -8.93868,5.40673 m -5.83321,-0.0526 c 3.53238,4.17387 10.22051,15.68715 10.5998,28.76686 -0.18149,0.72594 -0.18433,1.27041 -0.18433,1.81487 -0.18148,0.72596 -0.18003,1.27043 -0.36156,1.8149 -0.36297,2.35936 -1.08751,4.71943 -2.17644,7.07879 -0.72596,1.08893 -1.09175,2.17568 -1.99921,3.26461 l -1.08823,1.63412 c -0.36297,0.36299 -0.90601,0.9089 -1.269,1.45336 -0.36297,0.54447 -0.90887,1.08676 -1.45333,1.44973 l -0.72664,0.72669 -0.36158,0.3617 h -0.18076 l -0.18077,0.18421 c -0.54446,0.36298 -1.27042,0.906 -1.81489,1.26897 -0.54446,0.36299 -1.27041,0.54446 -1.81487,0.90745 l -0.90746,0.54591 c -0.36297,0.1815 -0.72877,0.17968 -1.09175,0.36153 -0.54447,0.18149 -1.26972,0.5452 -1.99566,0.72667 l -2.17647,0.54248 c -0.72594,0.18149 -1.45403,0.18348 -2.17997,0.36498 -2.90383,0.36297 -5.98913,0.36098 -9.07445,-0.36498 l -1.08821,-0.18149 c -0.36299,-0.18148 -0.72525,-0.17968 -1.08824,-0.36153 -0.72594,-0.36297 -1.45049,-0.54518 -2.17643,-0.72668 -1.45192,-0.54446 -2.90454,-1.08893 -4.35643,-1.81489 -4.27087,-2.20435 -8.22759,-5.35064 -11.6326,-8.88204 m -1.64635,-1.78495 c -0.48751,-0.55244 -0.96144,-1.11161 -1.42093,-1.67551 l -1.45332,-2.17659 -0.72667,-1.0882 -0.54234,-1.08821 -1.27254,-1.99909 -1.08823,-2.17659 -0.5459,-1.08822 -0.36156,-1.0882 c -0.36295,-0.90744 -0.72594,-1.63484 -0.90742,-2.3608 -0.36299,-1.6334 -0.90676,-3.08459 -1.08823,-4.71799 -0.36299,-1.6334 -0.54517,-3.08457 -0.72668,-4.71797 v -2.3608 -1.08822 l 0.18077,-1.0882 c 0.14343,-2.43613 0.63539,-4.86734 1.36824,-7.12488 h 0.0182 c 0,0 -0.003,-0.0291 -0.003,-0.0308 0.19174,-0.58857 0.38916,-1.1697 0.61322,-1.72995 0.36299,-0.72595 0.54447,-1.45118 0.90746,-1.99564 0.36299,-0.72596 0.72878,-1.27315 1.09177,-1.99911 0.36296,-0.72594 0.90601,-1.27041 1.26898,-1.81488 0.1815,-0.36299 0.36442,-0.54446 0.5459,-0.90745 l 0.72313,-0.72322 c 1.81488,-2.17787 3.99558,-3.812 6.5364,-5.2639 0.54447,-0.36299 1.08613,-0.54447 1.63059,-0.90745 0.54447,-0.36298 1.27041,-0.54518 1.81488,-0.72668 1.27041,-0.54446 2.54366,-0.72523 3.8141,-1.0882 2.54082,-0.36299 5.08096,-0.54647 7.44032,-0.36498 8.04053,0.89638 16.79077,5.60945 21.90165,10.32708 l -22.48983,17.80458 -17.22828,25.26012"
   id="path6487-2-3"
   sodipodi:nodetypes="cccccccsccscccccscccccccccccccsccssccccccccscccccccccsccsccccccccccccccccccssccccscccccccccccccccccccscccccccccccccsccccscccccccccccccccccscccscsccccccccccsccccsccccccscccscccccccsccsccccccccsccccccccccccccccssscccsccscccccccccccccccccsccccccccscccsccccccccccccscccccsccccccccccccccccccccccccccccccccsccccscccccc" /><path
   style="fill:#f9f9f9;stroke:#000000;stroke-width:1.81489;stroke-miterlimit:10"
   d="m 258.47761,221.26471 -33.75662,7.26117 -95.46433,88.74816 11.07277,11.06935 h 6.35055 l 3.08389,21.05214 0.69453,2.72505 84.60757,-85.41509 37.5683,-8.77971 181.24166,10.1189 -2.29299,-17.74232 10.7039,-11.61438 -11.06946,-12.70457 z m 14.54546,45.20502 -35.75052,9.25827 -85.65769,80.92199 0.32566,1.27623 3.44945,9.61728 4.48626,25.638 c -21.72031,16.67645 -25.53846,66.73901 -25.53846,66.73901 l -10.70719,62.07004 25.04662,37.20263 -11.06946,101.45271 c -0.16674,0.71943 -0.25899,1.45027 -0.36552,2.17986 l 33.93939,18.69298 10.88998,-3.2668 12.88719,1.26932 5.57627,-54.0377 0.0764,0.42868 4.32344,-43.06473 1.0933,-10.58423 25.64649,-2.90292 -13.05171,104.63457 -9.3281,1.55518 0.49514,2.82815 -13.38234,6.04139 -12.88721,-2.90091 -10.16222,7.25773 -36.84384,-20.86938 -7.79945,-0.71126 -3.26997,42.9983 3.26997,24.3222 c 0.68541,0.66642 0.41228,1.35934 7.41065,3.54248 l -7.98554,11.43161 -21.52077,-7.68642 c -0.0565,0.29709 -2.12837,-8.33759 -2.15673,-8.01871 -8.126088,11.83251 3.92133,20.14814 3.92133,20.14814 l 21.23829,7.07843 17.60277,7.9855 -50.997184,8.52724 -44.46715,90.38317 2.904436,21.95959 144.102058,12.15937 95.1021,-19.60004 8.52722,-23.59117 -37.0233,-1.81435 -35.20551,-80.94884 -11.23892,0.26914 -6.24089,0.32905 -5.93517,-1.50545 3.33313,-3.51581 -1.51536,-0.29581 -18.33054,1.09002 -6.35385,7.25773 h -8.53056 l -1.9972,-7.25773 0.90388,-5.09767 -26.08678,-9.604 4.71557,-7.07825 h 4.90498 l 22.36817,6.37044 1.90749,-1.64828 -17.24055,-25.40896 7.075,-38.83749 12.8872,-5.62632 11.61445,3.26353 14.54877,-3.73196 8.50065,48.56455 -3.44945,14.33271 3.44945,14.70512 52.26661,4.71562 52.55904,-11.43851 3.13374,-0.6844 41.30351,-8.98913 1.46883,0.69457 45.01216,9.25483 c 3.3607,1.51561 5.56001,2.2147 7.27773,3.60889 l 17.84867,-3.15355 2.02379,-26.43236 73.66111,-16.03762 22.68387,-32.66649 -37.56831,-160.91077 13.61165,-4.97133 c 0,0 11.77248,-74.99258 12.15946,-84.02599 1.08012,-25.21495 -3.26554,-37.75201 -7.80278,-47.7339 -4.5372,-9.98186 -15.97179,-23.77591 -26.86109,-25.95379 -10.88479,-2.17694 -22.50799,-1.28366 -22.5177,-1.28276 l -11.78391,-61.51178 v -9.07551 l 3.81167,-8.34776 -7.44057,-6.35046 -0.0698,-0.53848 z m 8.3212,34.65036 165.88201,7.25773 81.86929,373.51967 -178.60307,7.06172 h -0.003 z m 189.85195,63.24971 c 20.0077,3.21363 32.99333,17.7496 40.58569,35.3451 5.93806,14.08044 5.47937,43.43842 4.9349,56.3243 -0.54446,12.8855 -5.71915,49.96038 -5.71915,49.96038 l -12.0531,4.07732 z M 211.15253,684.9946 v 0 l -0.17277,0.04 z m 13.7612,95.96611 35.02938,81.12817 13.09325,4.57932 -80.60981,18.10804 v -7.98895 l -19.4172,-89.47283 27.81483,-3.40291 7.01849,13.39912 19.51359,50.9141 v 0.23921 l 0.10974,0.0454 3.60896,9.41453 h 6.35055 l -3.35971,-1.45226 -1.79449,-4.91146 -0.37887,-1.10326 14.33278,-2.88458 -3.32315,-7.42398 h -11.61109 l -2.22653,1.66498 -3.20018,-8.75319 0.67126,-0.18295 7.02848,-0.78076 c 0,0 1.81443,-2.71925 1.81443,-4.71562 0,-1.99639 -3.26996,-6.35392 -3.26996,-6.35392 l -12.60476,-2.6951 -7.66985,-21.02548 h 7.62324 l -5.79558,-14.97028 z"
   id="polygon6449-6-6"
   inkscape:connector-curvature="0"
   sodipodi:nodetypes="ccccccccccccccccccccccccccccccccccccccccccccccccccccccccccccccccccccccccccccccccccccccccccccccscccccccccccccccccsccccccccccccccccccccccccccccccscccccc" /><path
   inkscape:connector-curvature="0"
   style="fill:#f9f9f9;stroke:#000000;stroke-width:1.81489;stroke-miterlimit:10"
   d="m 368.16173,753.37517 -12.58812,3.28003 -56.26105,80.76265 4.53944,17.0612 113.42933,27.94763 0.31569,-2.02378 74.09309,-16.124 4.53943,-15.79151 -31.31076,6.74593 c -0.34422,-1.8343 -0.93641,-4.0294 -1.9042,-6.74593 l -23.93004,-67.37712 -0.27583,0.0563 -3.14369,-8.48404 -11.16914,-4.09076 5.85209,16.37318 h 5.81884 l 20.65342,63.7813 -3.73523,3.7352 c 0.33458,1.88495 0.82635,3.60257 1.39573,4.99803 l -34.4711,7.42742 0.35557,-2.26316 -17.0611,-95.28156 7.62333,-4.71562 z"
   id="polygon6451-2-7" /><path
   inkscape:connector-curvature="0"
   style="fill:#f9f9f9;stroke:#000000;stroke-width:1.81489;stroke-miterlimit:10"
   d="m 488.46667,727.66729 49.00658,80.95866 -42.19744,10.77389 -11.78391,-18.61984 5.19075,-1.48874 0.18612,0.38549 13.20621,-4.03759 -26.22636,-46.02897 -0.23593,0.0381 -7.29099,-15.20023 -8.53058,2.54211 5.99166,15.24342 h 4.12405 l 0.62474,9.84993 5.67265,11.63088 -13.18964,4.53959 4.90166,8.53034 12.92377,-3.56573 3.26336,6.68623 -12.01324,5.77243 1.99724,7.80257 12.21591,24.43853 0.26252,-0.0381 5.12431,9.89986 44.28438,-11.25231 8.16833,-19.60331 -0.23594,0.0599 0.78759,-1.36244 -50.60172,-77.95465 z"
   id="polygon6461-1-5" /><path
   inkscape:connector-curvature="0"
   style="fill:#f9f9f9;stroke:#000000;stroke-width:1.81489;stroke-miterlimit:10"
   d="m 369.32464,314.90725 a 73.502194,60.072163 52.684332 0 0 -34.75932,10.35411 73.502194,60.072163 52.684332 0 0 -3.21859,94.87029 73.502194,60.072163 52.684332 0 0 92.33589,22.0409 73.502194,60.072163 52.684332 0 0 3.21861,-94.87031 73.502194,60.072163 52.684332 0 0 -57.57659,-32.39499 z m 1.05986,8.93268 a 65.516769,53.538633 52.684332 0 1 51.32017,28.87504 65.516769,53.538633 52.684332 0 1 -2.86411,84.55883 65.516769,53.538633 52.684332 0 1 -82.29731,-19.64833 65.516769,53.538633 52.684332 0 1 2.86411,-84.56229 65.516769,53.538633 52.684332 0 1 30.97714,-9.22325 z"
   id="ellipse6481-0-3" /><path
   inkscape:connector-curvature="0"
   style="fill:#f9f9f9;stroke:#000000;stroke-width:1.81489;stroke-miterlimit:10"
   d="m 246.31645,6.925882 -0.54233,14.69985 1.63409,26.861775 c 0,0 -5.26458,3.085318 -4.17565,9.981882 1.08894,6.896563 6.35209,11.070082 6.35209,11.070082 l 3.0839,8.528516 -3.62977,8.532139 v 15.788064 l -1.99567,18.32964 14.51911,-1.99566 28.49583,1.81489 -15.79166,-38.293376 -5.07954,-4.717985 -2.36075,-9.981883 c 0,0 3.26536,-6.897295 2.17643,-14.338324 -1.08893,-7.259553 -10.5242,-8.893665 -10.5242,-8.893665 l -4.718,-26.315862 z m 1.63412,6.352098 4.5372,6.53286 4.53722,23.232007 h -3.26466 v -2.72233 l -3.81411,-19.963748 z m 7.07874,31.033847 5.26389,2.176588 6.35212,2.906546 v 3.810531 3.264805 l -8.16699,-3.629785 -6.35212,1.814893 -6.53287,3.813984 -2.18,-4.175697 5.80976,-6.53286 z m 11.61601,33.75616 5.987,6.171335 12.70417,33.756178 -22.86684,-2.5414 -3.08388,-31.214778 -7.25956,1.995655 4.35645,-6.532861 z"
   id="path6483-6-5" /><path
   inkscape:connector-curvature="0"
   style="fill:#f9f9f9;stroke:#000000;stroke-width:1.81489;stroke-miterlimit:10"
   d="m 408.37252,565.91099 -49.71388,0.36152 20.81465,97.21041 h 4.69317 l -0.1985,-0.94646 c 15.15713,-0.27532 -0.71945,-0.55045 44.18772,-0.82578 l -1.26902,-6.53305 h -44.45711 l -0.51044,-2.43866 44.24088,-0.82596 -1.269,-6.71726 -44.51736,0.16334 -0.54232,-2.58766 44.33302,-0.65935 -1.45331,-6.71707 h -44.42167 l -0.54234,-2.58766 44.42165,-0.49639 -1.45333,-6.89784 -44.47837,0.16692 -0.53878,-2.57332 44.47127,-0.49638 -1.44978,-7.07861 -44.57053,0.16692 -0.53524,-2.55916 44.55988,-0.32959 -1.6341,-7.07534 -44.44292,0.16334 -0.53524,-2.55935 44.43582,-0.32613 -1.45331,-7.25955 -44.50319,0.32613 -0.56716,-2.70455 44.52799,-0.16334 -1.45333,-7.4403 -44.59534,0.32269 -0.52817,-2.52034 44.57763,-0.16334 -1.44978,-7.44031 -44.65206,0.32613 -0.56361,-2.68694 44.66962,0.0236 z"
   id="polygon6491-6-6"
   sodipodi:nodetypes="ccccccccccccccccccccccccccccccccccccccccccc" /><path
   inkscape:connector-curvature="0"
   style="fill:#f9f9f9;stroke:#000000;stroke-width:1.81489;stroke-miterlimit:10"
   d="m 466.82515,565.36506 -4.08705,0.0435 h -0.13119 l -46.76207,0.50328 1.63059,7.62108 46.69471,-0.5501 0.35449,2.39347 -46.68412,0.33667 1.63411,7.62106 46.57778,-0.73357 0.38989,2.76116 -46.60611,0.33321 1.6341,7.44032 46.43596,-0.16691 0.45726,2.37496 -46.53166,0.33321 1.45333,7.25955 46.4714,-0.33321 0.52461,2.72233 -46.45367,0.33321 1.45333,7.07534 46.32962,-0.49639 0.58843,3.05211 -46.37217,0.16691 1.44978,7.07861 46.21973,-0.4962 0.62032,3.23285 -46.29416,0.16691 1.44978,6.89784 46.0744,-0.66278 0.68768,3.58022 -46.2162,0.16691 1.45333,6.71708 45.92906,-0.82595 0.75152,3.90981 h -46.13824 l 1.27255,6.71726 45.99641,-0.82596 0.78694,4.09058 h -46.06021 l 1.2725,6.3521 45.8511,-0.82577 0.064,0.33321 h 4.69317 l -0.0781,-0.41488 h 0.0886 l -0.51399,-2.21181 -3.30722,-17.20603 h 0.0102 l -0.12047,-0.56008 -14.46591,-75.26099 h -0.47146 l -0.007,-0.0436 z"
   id="polygon6493-1-2"
   sodipodi:nodetypes="cccccccccccccccccccccccccccccccccccccccccccccccccccccc" /><polygon
   style="fill:#f9f9f9;stroke:#000000;stroke-miterlimit:10"
   id="polygon6541-8-9"
   points="238.6,419.8 304,418.6 306,425.4 240.2,427 "
   class="st0"
   transform="matrix(1.8148867,0,0,1.8148867,-59.397521,-94.977615)" /><path
   style="fill:#000000;stroke:#000000;stroke-width:1.81489;stroke-miterlimit:10"
   d="m 271.18203,301.84113 -12.70442,66.79239 7.64992,43.79575 c -3.422,-4.96063 -7.30476,-9.32689 -11.25221,-12.88715 -1.14824,-8.17225 -2.86268,-17.15194 -6.29407,-23.80713 -4.23879,-10.76554 -13.74673,-19.45614 -22.50108,-22.50442 -1.08893,-0.36298 -2.35848,-0.54628 -3.62889,-0.72778 -0.18149,-0.18147 -0.54424,-0.18275 -0.90723,-0.18275 h -0.91053 -0.90724 -0.18277 -0.17948 -0.18279 -0.54498 v 0 c -2.54085,0.18149 -5.08121,0.72759 -7.44057,1.63503 -4.7187,1.99637 -8.71113,5.26444 -12.15942,9.07571 -5.06706,5.75156 -10.24004,15.62927 -12.10627,23.86685 h -9.5607 c 0,0 45.91568,17.24215 50.08993,56.4437 2.54085,23.59353 5.98976,42.83134 2.90444,57.71339 -9.25592,46.09814 -11.25221,57.35097 -11.25221,57.35097 l 44.28108,-3.99456 7.26107,-39.56544 c 0,0 3.34344,-17.08806 5.71252,-43.79575 l 37.46526,214.46316 26.26292,-3.62887 z m -52.54573,54.11123 h 0.72776 0.90723 0.90722 c 0.18149,0.18148 0.54294,0.18275 0.72445,0.18275 0.90742,0 1.997,0.18204 2.90443,0.54483 3.99276,1.27061 7.2584,3.6316 10.16221,6.35393 8.81863,8.84956 13.09583,21.35831 14.67715,32.89881 -11.57588,-9.35356 -20.5558,-9.22126 -20.5558,-9.22126 -12.75877,0.0291 -25.51749,0.11791 -38.27613,0.18276 1.6151,-7.93759 6.49641,-16.58643 10.94315,-21.68699 3.08528,-3.44829 6.71779,-6.53032 10.71053,-7.98224 1.99639,-0.72595 4.17141,-1.27259 6.1678,-1.27259 z"
   id="polygon6555-7-1"
   inkscape:connector-curvature="0"
   sodipodi:nodetypes="cccccccsccccccccccccccccccccscccscccccccs" /><path
   inkscape:connector-curvature="0"
   style="fill:#000000;stroke:#000000;stroke-width:1.81489;stroke-miterlimit:10"
   d="m 279.626,593.48873 -3.87435,3.04501 0.14887,1.06697 -48.0945,42.35564 0.72666,3.99475 48.02716,-41.60047 0.79044,5.67861 -48.09096,41.36654 0.72315,3.81053 48.02713,-40.44494 0.81175,5.83814 -47.93144,40.05146 0.72666,3.81053 47.84284,-39.28232 0.81525,5.85937 -47.93141,39.04856 0.72665,3.81398 47.83571,-38.3041 0.83658,5.99059 -47.94563,37.75817 0.90746,3.81053 47.6514,-37.15545 0.8401,6.04014 -47.76839,36.74074 0.72665,3.62978 47.64431,-36.02116 0.84011,6.03306 -47.75775,35.61352 0.90746,3.62977 47.45645,-34.89047 0.86135,6.19621 -47.77193,34.50407 0.90744,3.62978 47.44934,-33.94401 0.86846,6.23868 -47.59468,33.33076 0.90745,3.62976 47.26149,-32.82041 0.81525,4.46281 -52.24886,38.15872 1.08824,9.07443 52.57853,-39.47724 0.11689,0.64503 5.25682,-3.04485 -16.11424,-101.87122 z"
   id="polygon6559-9-2" /><path
   style="color:#000000;clip-rule:nonzero;display:inline;overflow:visible;visibility:visible;isolation:auto;mix-blend-mode:normal;color-interpolation:sRGB;color-interpolation-filters:linearRGB;solid-color:#000000;solid-opacity:1;vector-effect:none;fill:#f9f9f9;fill-opacity:1;fill-rule:evenodd;stroke:#000000;stroke-width:1.70146;stroke-linecap:round;stroke-linejoin:round;stroke-miterlimit:4;stroke-dasharray:none;stroke-dashoffset:0;stroke-opacity:1;color-rendering:auto;image-rendering:auto;shape-rendering:auto;text-rendering:auto;enable-background:accumulate"
   d="m 267.96366,123.59788 v 0 c -12.57126,-0.0204 -20.06815,0.82027 -27.32633,3.06739 -1.91638,0.59329 -4.25762,1.53845 -5.20405,2.09687 -3.06397,1.8078 -25.53234,23.1866 -42.43339,40.3764 -17.28153,17.57689 -20.56357,21.11592 -28.46284,30.69257 -17.11968,20.7547 -22.36295,30.47323 -30.10779,55.8224 -4.78097,15.64829 -5.68215,18.32689 -7.15808,21.26497 -0.78862,1.56978 -1.43114,2.93041 -1.43228,3.03063 0.001,0.0408 0.44569,1.04777 0.99361,2.16 -2.16896,2.03596 -10.77163,10.07943 -10.98969,10.29194 l -1.74464,1.69805 6.11461,5.76573 6.11129,5.76572 1.68152,-1.5587 c 0.92508,-0.85686 22.29132,-20.288 47.47792,-43.18109 l 45.79311,-41.62579 19.12476,-4.679 19.12476,-4.68241 15.04062,0.19941 c 8.27081,0.10889 25.1034,0.35271 37.40878,0.54498 12.30535,0.19243 45.89528,0.68448 74.64144,1.09335 28.74617,0.40886 55.57749,0.84393 59.62738,0.96371 l 7.3641,0.21932 2.34284,2.98758 c 1.28845,1.64361 3.23367,4.11668 4.32342,5.49656 l 1.98063,2.50896 1.42563,-1.39247 1.42564,-1.38907 v -3.32976 -3.32992 l 1.83437,-0.71103 c 1.00864,-0.39152 1.83437,-0.84564 1.83437,-1.00692 0,-0.41464 -11.37505,-13.87401 -11.87696,-14.05369 -0.0317,-0.0187 -2.38638,-0.0902 -3.01076,-0.1191 -2.71923,-2.54146 -6.51518,-5.88584 -9.4245,-7.55361 -4.88531,-2.8006 -9.58048,-5.56547 -10.43471,-6.14107 -4.23304,-2.85283 -8.04738,-6.91165 -15.42942,-16.41973 -14.45453,-18.61784 -17.49487,-21.19861 -31.98203,-27.1503 -19.3971,-7.9686 -27.47832,-9.88869 -46.21516,-10.98954 -9.48315,-0.55722 -15.78307,-1.20344 -34.10889,-3.48611 -22.42361,-2.79311 -27.63126,-3.23157 -38.32928,-3.24995 z m 3.53581,12.74102 3.3697,0.1259 c 7.56416,0.28143 32.25685,2.869 41.38328,4.33668 1.1765,0.18937 1.69237,0.67326 4.21707,3.94465 9.14326,11.84673 10.26742,13.79473 16.70885,29.04436 1.619,3.83287 3.41742,7.9116 3.99777,9.06213 1.35067,2.6786 4.81458,6.3825 7.85262,8.3943 1.30724,0.8657 2.37936,1.62251 2.37936,1.68495 0,0.13442 1.69037,0.17769 -25.29587,-0.63141 l -21.44432,-0.64146 -5.93849,-6.02809 c -3.26652,-3.31408 -6.59888,-7.04708 -7.40731,-8.29799 -0.96705,-1.49592 -1.99104,-3.93291 -2.99417,-7.12484 -4.6105,-14.67097 -5.38308,-16.84407 -7.39402,-20.80625 -1.97253,-3.88647 -3.89694,-6.63585 -7.89914,-11.28219 z m -7.92571,0.1259 3.08721,3.25659 c 3.64893,3.85091 7.02441,8.30379 8.44082,11.13263 1.56235,3.12013 3.32199,7.79879 6.62638,17.61279 1.66261,4.93796 3.33745,9.71038 3.72193,10.60738 1.16332,2.714 3.86275,6.46316 6.74934,9.37809 l 2.73163,2.76146 H 292.452 c -1.36406,6.7e-4 -10.41294,-0.25795 -20.10842,-0.57492 l -17.62935,-0.57492 -19.2311,4.06767 c -10.57811,2.23776 -19.44087,4.14441 -19.69303,4.23356 -0.25217,0.0885 -0.45859,0.0611 -0.45859,-0.0596 0,-0.1225 0.90572,-2.99966 2.01051,-6.39713 1.10475,-3.39732 2.19214,-7.29653 2.41593,-8.66348 0.22382,-1.36712 0.51843,-7.97098 0.65465,-14.67506 0.2339,-11.51085 0.28818,-12.22784 0.97701,-12.89056 0.40117,-0.38572 3.78169,-3.54686 7.51366,-7.02514 5.51417,-5.13908 7.26493,-6.55265 9.35136,-7.54681 4.6787,-2.22908 12.67917,-3.88307 21.27817,-4.3998 z m 61.79079,5.50013 c 0,-0.0562 1.93983,0.0936 4.31012,0.3323 2.3703,0.23837 7.44597,0.62256 11.27882,0.85413 14.70181,0.88799 23.34344,2.34018 33.0089,5.54623 2.04163,0.67718 2.35173,0.93291 4.29019,3.57578 3.43086,4.67748 5.87608,9.09497 12.77089,23.07259 6.55186,13.28276 7.91936,15.73473 10.02267,17.97502 l 1.11988,1.19308 -5.84874,-0.0493 c -3.21679,-0.0289 -12.0106,-0.26237 -19.54351,-0.52184 v 0 l -13.69805,-0.47198 -4.2769,-3.23349 c -5.26651,-3.98634 -11.34429,-9.20622 -12.39538,-10.64395 -1.35357,-1.85169 -2.97161,-5.35703 -5.76899,-12.48851 -4.3456,-11.07835 -6.44748,-14.7717 -12.24252,-21.51406 -1.66425,-1.93626 -3.02738,-3.56574 -3.02738,-3.62223 z m 62.0533,11.92687 c 7.90032,3.05973 12.15356,5.32709 16.1705,8.61362 4.42426,3.61951 6.76118,6.30984 19.51689,22.50771 1.81131,2.30018 4.67989,5.62875 6.37713,7.39402 l 3.08721,3.20673 -3.4461,-0.0664 c -1.89474,-0.0374 -6.36908,-0.16164 -9.9429,-0.2758 -5.10546,-0.16164 -6.60822,-0.32551 -7.01186,-0.75766 -9.21794,-9.87185 -11.46029,-12.68538 -13.20956,-16.56266 -0.48609,-1.07753 -1.95737,-4.35641 -3.26666,-7.28444 -2.95948,-6.619 -5.33544,-11.36657 -7.27107,-14.52873 -0.81998,-1.33972 -1.27019,-2.34971 -1.00358,-2.24643 z"
   id="path3081-7" /><path
   style="fill:#f9f9f9;fill-rule:evenodd;stroke:#000000;stroke-width:1.70146px;stroke-linecap:butt;stroke-linejoin:miter;stroke-opacity:1"
   d="m 403.49599,361.46581 2.48539,4.22233"
   id="path3144-0"
   inkscape:connector-curvature="0"
   sodipodi:nodetypes="cc" /></svg>
